<svg id="svgBuilder" class="avatar-frame p-2 p-md-5 bg-white " xmlns="http://www.w3.org/2000/svg" viewBox="0 0 250 280" style="opacity: 1;">
  <defs>
    <clipPath id="b9b980b5-38c2-4c2c-b5a3-0250ab56908c" transform="translate(-59.5 -53.5)">
      <rect width="250" height="250" style="fill: none"></rect>
    </clipPath>
  </defs>
  <g id="ae1cd98a-2feb-47b9-a86d-6e1f11f5716f" data-name="SKIN" style="transform: translate(59.7px, 54px);">
    <g style="clip-path: url(#b9b980b5-38c2-4c2c-b5a3-0250ab56908c)">
      <g>
        <path class="first-color" d="M124.8,53.5a65.32,65.32,0,0,0-65.3,65.3v65.3a65.3,65.3,0,1,0,130.6,0V118.8A65.32,65.32,0,0,0,124.8,53.5Z" transform="translate(-59.5 -53.5)" style="fill: #f0c87f"></path>
        <path d="M124.8,53.5v196a65.32,65.32,0,0,0,65.3-65.3V118.9A65.34,65.34,0,0,0,124.8,53.5Z" transform="translate(-59.5 -53.5)" style="fill: #010202;opacity: 0.03;isolation: isolate"></path>
      </g>
    </g>
  </g>

  <defs>
    <clipPath id="fcfe7f27-8f79-431f-ae24-90ea596e2205" transform="translate(-61.9 -134.3)">
      <rect width="250" height="250" style="fill: none"></rect>
    </clipPath>
  </defs>
  <g id="b11a643e-3d3f-4f88-a37b-29cac8377f5f" data-name="EYES" style="transform: translate(63.2px, 133.4px);">
    <g style="clip-path: url(#fcfe7f27-8f79-431f-ae24-90ea596e2205)">
      <g>
        <circle cx="28.4" cy="25.1" r="16.5" style="fill: #f6f6f6"></circle>
        <circle class="first-color" cx="28.4" cy="25.1" r="11.4" style="fill: #1f5da1"></circle>
        <circle cx="28.4" cy="25.1" r="7"></circle>
        <ellipse cx="83.28" cy="163.79" rx="4.4" ry="3.1" transform="translate(-132.64 -70.71) rotate(-30)" style="fill: #fff"></ellipse>
        <circle cx="23.4" cy="21.2" r="2.6" style="fill: #fff"></circle>
        <path class="color-eyebrows" d="M110.5,150.7H70.1a8.24,8.24,0,0,1-8.2-8.2h0a8.24,8.24,0,0,1,8.2-8.2h40.5a8.24,8.24,0,0,1,8.2,8.2h0A8.32,8.32,0,0,1,110.5,150.7Z" transform="translate(-61.9 -134.3)" style="fill: rgb(225, 150, 13);"></path>
        <circle cx="95.2" cy="25.1" r="16.5" style="fill: #f6f6f6"></circle>
        <circle class="first-color" cx="95.2" cy="25.1" r="11.4" style="fill: #1f5da1"></circle>
        <circle cx="95.2" cy="25.1" r="7"></circle>
        <ellipse cx="150.08" cy="163.79" rx="4.4" ry="3.1" transform="translate(-123.69 -37.31) rotate(-30)" style="fill: #fff"></ellipse>
        <circle cx="90.2" cy="21.2" r="2.6" style="fill: #fff"></circle>
        <path class="color-eyebrows" d="M177.3,150.7H136.8a8.24,8.24,0,0,1-8.2-8.2h0a8.24,8.24,0,0,1,8.2-8.2h40.5a8.24,8.24,0,0,1,8.2,8.2h0A8.17,8.17,0,0,1,177.3,150.7Z" transform="translate(-61.9 -134.3)" style="fill: rgb(225, 150, 13);"></path>
      </g>
    </g>
  </g>

  <defs>
    <clipPath id="a7ce7426-d6e7-4039-bb6e-ac674fa9a9aa" transform="translate(-85.8 -192)">
      <rect width="250" height="250" style="fill: none"></rect>
    </clipPath>
    <clipPath id="e9575a0b-476f-4386-966a-305a0a9c4e0c" transform="translate(-85.8 -192)">
      <path d="M143.2,219.4,104.9,215a8.83,8.83,0,0,1-7.7-9.7h0a8.83,8.83,0,0,1,9.7-7.7l38.3,4.4a8.83,8.83,0,0,1,7.7,9.7h0A8.69,8.69,0,0,1,143.2,219.4Z" style="fill: none"></path>
    </clipPath>
  </defs>
  <g id="bf778da3-628d-4646-b219-4531904bf109" data-name="MOUTH" style="transform: translate(85.8px, 200px);">
    <g style="clip-path: url(#a7ce7426-d6e7-4039-bb6e-ac674fa9a9aa); transform: translateY(-3px)">
      <g>
        <g style="clip-path: url(#e9575a0b-476f-4386-966a-305a0a9c4e0c)">
          <path d="M143.2,219.4,104.9,215a8.83,8.83,0,0,1-7.7-9.7h0a8.83,8.83,0,0,1,9.7-7.7l38.3,4.4a8.83,8.83,0,0,1,7.7,9.7h0A8.69,8.69,0,0,1,143.2,219.4Z" transform="translate(-85.8 -192)"></path>
        </g>
        <g style="clip-path: url(#e9575a0b-476f-4386-966a-305a0a9c4e0c)">
          <path d="M90.7,193.6a4.91,4.91,0,0,0-4.9,4.9v4.9a4.9,4.9,0,1,0,9.8,0v-4.9A4.91,4.91,0,0,0,90.7,193.6Z" transform="translate(-85.8 -192)" style="fill: #fff"></path>
        </g>
        <g style="clip-path: url(#e9575a0b-476f-4386-966a-305a0a9c4e0c)">
          <path d="M159.3,193.6a4.91,4.91,0,0,0-4.9,4.9v4.9a4.9,4.9,0,0,0,9.8,0v-4.9A4.91,4.91,0,0,0,159.3,193.6Z" transform="translate(-85.8 -192)" style="fill: #fff"></path>
        </g>
        <g style="clip-path: url(#e9575a0b-476f-4386-966a-305a0a9c4e0c)">
          <path d="M100.5,193.6a4.91,4.91,0,0,0-4.9,4.9v4.9a4.9,4.9,0,1,0,9.8,0v-4.9A4.91,4.91,0,0,0,100.5,193.6Z" transform="translate(-85.8 -192)" style="fill: #fff"></path>
        </g>
        <g style="clip-path: url(#e9575a0b-476f-4386-966a-305a0a9c4e0c)">
          <path d="M110.3,193.6a4.91,4.91,0,0,0-4.9,4.9v4.9a4.9,4.9,0,0,0,9.8,0v-4.9A4.91,4.91,0,0,0,110.3,193.6Z" transform="translate(-85.8 -192)" style="fill: #fff"></path>
        </g>
        <g style="clip-path: url(#e9575a0b-476f-4386-966a-305a0a9c4e0c)">
          <path d="M120.1,193.6a4.91,4.91,0,0,0-4.9,4.9v4.9a4.9,4.9,0,0,0,9.8,0v-4.9A4.91,4.91,0,0,0,120.1,193.6Z" transform="translate(-85.8 -192)" style="fill: #fff"></path>
        </g>
        <g style="clip-path: url(#e9575a0b-476f-4386-966a-305a0a9c4e0c)">
          <path d="M129.9,193.6a4.91,4.91,0,0,0-4.9,4.9v4.9a4.9,4.9,0,0,0,9.8,0v-4.9A4.91,4.91,0,0,0,129.9,193.6Z" transform="translate(-85.8 -192)" style="fill: #fff"></path>
        </g>
        <g style="clip-path: url(#e9575a0b-476f-4386-966a-305a0a9c4e0c)">
          <path d="M139.7,193.6a4.91,4.91,0,0,0-4.9,4.9v4.9a4.9,4.9,0,0,0,9.8,0v-4.9A4.91,4.91,0,0,0,139.7,193.6Z" transform="translate(-85.8 -192)" style="fill: #fff"></path>
        </g>
        <g style="clip-path: url(#e9575a0b-476f-4386-966a-305a0a9c4e0c)">
          <path d="M149.5,193.6a4.91,4.91,0,0,0-4.9,4.9v4.9a4.9,4.9,0,1,0,9.8,0v-4.9A4.91,4.91,0,0,0,149.5,193.6Z" transform="translate(-85.8 -192)" style="fill: #fff"></path>
        </g>
        <g style="clip-path: url(#e9575a0b-476f-4386-966a-305a0a9c4e0c)">
          <rect x="9.8" width="58.7" height="9" style="fill: #fff"></rect>
        </g>
        <g style="clip-path: url(#e9575a0b-476f-4386-966a-305a0a9c4e0c)">
          <ellipse cx="39.2" cy="31.3" rx="18.3" ry="12.8" style="fill: #991914"></ellipse>
        </g>
      </g>
    </g>
  </g>

  <defs>
    <clipPath id="e83a5ff1-20c7-4e51-9316-6ed49d1ff869" transform="translate(-56.5 -20.65)">
      <rect width="250" height="250" style="fill: none"></rect>
    </clipPath>
    <clipPath id="f400526c-0c00-46ba-a95f-678b8259aae1" transform="translate(-56.5 -20.65)">
      <path d="M150.8,56.7c3.4-6.8,5.1-13.6,3.6-17.2-2.9-1.7-9.8.2-16.7,4.2-.3-6.8-1.9-12.7-4.7-14.9-3.3-.2-8.4,4.6-12.6,11.1-3.9-6.3-8.6-11.2-12.3-11.8-4.3,2.2-6.7,15.6-4.7,27C93.1,58.4,86.3,64,86.3,70.3c0,10.1,17.3,18.3,38.7,18.3s38.7-8.2,38.7-18.3C163.7,64.9,158.8,60.1,150.8,56.7Z" style="fill: none"></path>
    </clipPath>
  </defs>
  <g id="a3c6c147-2a49-4ebd-8b87-d8127e9247e3" data-name="HAIR" style="transform: translate(56.265px, 1px);">
    <g style="clip-path: url(#e83a5ff1-20c7-4e51-9316-6ed49d1ff869); transform:translateY(23px)">
      <g>
        <path class="first-color" d="M150.8,56.7c3.4-6.8,5.1-13.6,3.6-17.2-2.9-1.7-9.8.2-16.7,4.2-.3-6.8-1.9-12.7-4.7-14.9-3.3-.2-8.4,4.6-12.6,11.1-3.9-6.3-8.6-11.2-12.3-11.8-4.3,2.2-6.7,15.6-4.7,27C93.1,58.4,86.3,64,86.3,70.3c0,10.1,17.3,18.3,38.7,18.3s38.7-8.2,38.7-18.3C163.7,64.9,158.8,60.1,150.8,56.7Z" transform="translate(-56.5 -20.65)" style="fill: #e1960d"></path>
        <g>
          <g style="clip-path: url(#f400526c-0c00-46ba-a95f-678b8259aae1)">
            <path d="M112.8,54.4s-12.1-13.5-4.7-26.2c-18-1.6-8,28-8,28S108,54.1,112.8,54.4Z" transform="translate(-56.5 -20.65)" style="fill: rgba(0,0,0,0.11)"></path>
          </g>
          <g style="clip-path: url(#f400526c-0c00-46ba-a95f-678b8259aae1)">
            <path d="M122.8,50.4s5.1-18.2,15.5-27-16.7,6.3-16.7,6.3l-1.1,10.2C120.4,39.9,123.4,45.5,122.8,50.4Z" transform="translate(-56.5 -20.65)" style="fill: rgba(0,0,0,0.11)"></path>
          </g>
          <g style="clip-path: url(#f400526c-0c00-46ba-a95f-678b8259aae1)">
            <path d="M140.6,49.6s9.2-11.9,21.8-11-20.6-2.2-20.6-2.2l-4.1,7.4a40.62,40.62,0,0,1,0,7.4C137.4,54.3,140.6,49.6,140.6,49.6Z" transform="translate(-56.5 -20.65)" style="fill: rgba(0,0,0,0.11)"></path>
          </g>
          <g style="clip-path: url(#f400526c-0c00-46ba-a95f-678b8259aae1)">
            <path d="M97.3,55c-27.5,21.7,37.2,43.1,66.4,15.3,68.1-22.7,0-16.3,0-16.3l1.6,38.5S56.5,106.8,56.5,105.2s18.4-50,18.4-50S112.3,50.5,97.3,55Z" transform="translate(-56.5 -20.65)" style="fill: rgba(0,0,0,0.11)"></path>
          </g>
        </g>
      </g>
    </g>
  </g>

  <g id="fda67fb2-904d-4df9-b6af-83036baa6382" data-name="Calque 2" style="transform: translate(100.38px, 191.306px);">
    <g id="ba5c1ce3-da25-4987-baaf-fbbd5c73b46e" data-name="Calque 1">
      <rect x="-2.2" y="3.02" width="9.67" height="3.61" rx="1.81" transform="translate(-2.73 6.04) rotate(-74.13)" style="fill: rgb(225, 150, 13);" class="first-color"></rect>
      <rect x="6.74" y="3.02" width="9.67" height="3.61" rx="1.81" transform="translate(5.36 15.72) rotate(-82.95)" style="fill: rgb(225, 150, 13);" class="first-color"></rect>
      <rect x="15.38" y="3.02" width="9.67" height="3.61" rx="1.81" transform="translate(14.4 24.78) rotate(-87.17)" style="fill: rgb(225, 150, 13);" class="first-color"></rect>
      <rect x="41.77" y="3.02" width="9.67" height="3.61" rx="1.81" transform="translate(54.7 50.98) rotate(-105.87)" style="fill: rgb(225, 150, 13);" class="first-color"></rect>
      <rect x="32.83" y="3.02" width="9.67" height="3.61" rx="1.81" transform="translate(37.5 42.8) rotate(-97.05)" style="fill: rgb(225, 150, 13);" class="first-color"></rect>
      <rect x="24.19" y="3.02" width="9.67" height="3.61" rx="1.81" transform="matrix(-0.05, -1, 1, -0.05, 25.63, 34.05)" style="fill: rgb(225, 150, 13);" class="first-color"></rect>
    </g>
  </g>

  <g id="bead2fcf-5299-48b5-ac4d-a921968d650f" data-name="Calque 2" style="transform: translate(59.55px, 133.637px);">
    <g id="f1d6f900-ef5e-4525-8b38-e139482f7a18" data-name="Calque 1">
      <g>
        <path d="M55.91,23.45s3-2.57,9.54-2.57S75,23.45,75,23.45" class="first-color-stroke" style="fill: none;stroke: #1d1d1b;stroke-miterlimit: 10;stroke-width: 3px"></path>
        <line x1="12" y1="20.37" y2="20.37" class="first-color-stroke" style="fill: none;stroke: #1d1d1b;stroke-miterlimit: 10;stroke-width: 3px"></line>
        <line x1="130.9" y1="20.37" x2="118.39" y2="20.37" class="first-color-stroke" style="fill: none;stroke: #1d1d1b;stroke-miterlimit: 10;stroke-width: 3px"></line>
        <rect x="75" y="1.5" width="43.39" height="43.91" rx="12" class="first-color-stroke" style="fill: none;stroke: #1d1d1b;stroke-miterlimit: 10;stroke-width: 3px"></rect>
        <rect x="12.52" y="1.5" width="43.39" height="43.91" rx="12" class="first-color-stroke" style="fill: none;stroke: #1d1d1b;stroke-miterlimit: 10;stroke-width: 3px"></rect>
      </g>
    </g>
  </g>
</svg>