<svg id="svgBuilder" class="avatar-frame p-2 p-md-5 bg-white " xmlns="http://www.w3.org/2000/svg" viewBox="0 0 250 280" style="opacity: 1;">
  <defs>
    <clipPath id="b9b980b5-38c2-4c2c-b5a3-0250ab56908c" transform="translate(-59.5 -53.5)">
      <rect width="250" height="250" style="fill: none"></rect>
    </clipPath>
  </defs>
  <g id="ae1cd98a-2feb-47b9-a86d-6e1f11f5716f" data-name="SKIN" style="transform: translate(59.7px, 54px);">
    <g style="clip-path: url(#b9b980b5-38c2-4c2c-b5a3-0250ab56908c)">
      <g>
        <path class="first-color" d="M124.8,53.5a65.32,65.32,0,0,0-65.3,65.3v65.3a65.3,65.3,0,1,0,130.6,0V118.8A65.32,65.32,0,0,0,124.8,53.5Z" transform="translate(-59.5 -53.5)" style="fill: rgb(245, 221, 203);"></path>
        <path d="M124.8,53.5v196a65.32,65.32,0,0,0,65.3-65.3V118.9A65.34,65.34,0,0,0,124.8,53.5Z" transform="translate(-59.5 -53.5)" style="fill: #010202;opacity: 0.03;isolation: isolate"></path>
      </g>
    </g>
  </g>

  <g id="e105be83-8559-400f-bf61-5392af1449a1" data-name="EYES" style="transform: translate(70.82px, 120.08px);">
    <g id="af3b62d7-ccb8-4bde-9594-87bd03a3838c" data-name="Calque 1">
      <circle cx="88.07" cy="38.4" r="16.52" style="fill:#f6f6f6"></circle>
      <circle cx="88.07" cy="38.4" r="11.38" style="fill:#245c2f" class="first-color"></circle>
      <circle cx="88.07" cy="38.4" r="7.01" style="fill:#1d1d1b"></circle>
      <ellipse cx="81.06" cy="42.84" rx="4.4" ry="3.15" transform="translate(-10.56 46.27) rotate(-30)" style="fill:#fff"></ellipse>
      <circle cx="83.1" cy="34.52" r="2.64" style="fill:#fff"></circle>
      <circle cx="21.16" cy="38.4" r="16.52" style="fill:#f6f6f6"></circle>
      <circle cx="21.16" cy="38.4" r="11.38" style="fill:#245c2f" class="first-color"></circle>
      <circle cx="21.16" cy="38.4" r="7.01" style="fill:#1d1d1b"></circle>
      <ellipse cx="14.15" cy="42.84" rx="4.4" ry="3.15" transform="translate(-19.52 12.81) rotate(-30)" style="fill:#fff"></ellipse>
      <circle cx="16.19" cy="34.52" r="2.64" style="fill:#fff"></circle>
      <path d="M4.5,20.94A4.5,4.5,0,0,1,3,12.21L36,.27a4.5,4.5,0,0,1,3.06,8.46L6,20.67A4.53,4.53,0,0,1,4.5,20.94Z" style="fill: rgb(196, 139, 16);" class="color-eyebrows"></path>
      <path d="M103.86,20.94a4.53,4.53,0,0,1-1.53-.27l-33-11.94A4.5,4.5,0,0,1,72.35.27l33,11.94a4.5,4.5,0,0,1-1.53,8.73Z" style="fill: rgb(196, 139, 16);" class="color-eyebrows"></path>
    </g>
  </g>

  <defs>
    <clipPath id="e42f47cd-8928-4e79-a632-f95f7e147aac" transform="translate(0 6.54)">
      <rect id="ae647748-4c6f-4a2e-8c0f-048a66d7f9bb" data-name="SVGID" width="56.13" height="17.48" rx="8.74" style="fill:none"></rect>
    </clipPath>
  </defs>
  <g id="fd71eb00-f8c7-4db2-865b-d4cc9b7fd9f4" data-name="MOUTH" style="transform: translate(96.935px, 200px);">
    <g id="ad038bb8-5edf-4a4d-abbe-94efefe836ae" data-name="Calque 1" style="transform: translateY(-3px);">
      <g style="clip-path:url(#e42f47cd-8928-4e79-a632-f95f7e147aac)">
        <rect y="6.54" width="56.13" height="17.48" rx="8.74" style="fill:#1d1d1b"></rect>
        <ellipse cx="28.07" cy="29.02" rx="18.34" ry="12.87" style="fill:#991914"></ellipse>
        <path d="M23.16-6.54a4.9,4.9,0,0,0-4.9,4.9V3.27a4.91,4.91,0,0,0,9.81,0V-1.64A4.9,4.9,0,0,0,23.16-6.54Z" transform="translate(0 6.54)" style="fill:#fff"></path>
        <path d="M33-6.54a4.9,4.9,0,0,0-4.9,4.9V3.27a4.9,4.9,0,0,0,9.8,0V-1.64A4.9,4.9,0,0,0,33-6.54Z" transform="translate(0 6.54)" style="fill:#fff"></path>
      </g>
    </g>
  </g>

  <g id="b60140f7-dac6-4748-9d3f-abffed84bbed" data-name="Calque 2" style="transform: translate(79.1px, 168.448px);">
    <g id="a6e9e996-5780-4729-83dd-ac438637721a" data-name="Calque 1" style="transform: translateY(8px);">
      <path d="M56.11,66.66c0-3.07-3.94-4.75-8.75-4.75H44.44c-4.81,0-8.75,2.62-8.75,4.75-.74,12-28.92-5.89-28.92-5.89S42.9,85.39,45.9,101.94h0C48.9,85.39,85,60.77,85,60.77S56.85,78.65,56.11,66.66Z" class="first-color" style="fill: rgb(196, 139, 16);"></path>
      <path d="M41.9,4.33C31-6.14,11.56,4.7,2.43,12.4,1.13,13.5-.24,15,0,16.64a3.52,3.52,0,0,0,2.66,2.59,9.89,9.89,0,0,0,3.91,0,182.69,182.69,0,0,0,34.61-8A4.77,4.77,0,0,0,43.4,10c1.29-1.52.25-3.89-1.15-5.31C42.14,4.56,42,4.44,41.9,4.33Z" class="first-color" style="fill: rgb(196, 139, 16); transform: translateY(12px);"></path>
      <path d="M49.9,4.33C60.79-6.14,80.24,4.7,89.37,12.4c1.3,1.1,2.67,2.56,2.4,4.24a3.52,3.52,0,0,1-2.66,2.59,9.89,9.89,0,0,1-3.91,0,182.69,182.69,0,0,1-34.61-8A4.77,4.77,0,0,1,48.4,10c-1.29-1.52-.25-3.89,1.15-5.31C49.66,4.56,49.78,4.44,49.9,4.33Z" class="first-color" style="fill: rgb(196, 139, 16); transform: translateY(12px);"></path>
    </g>
  </g>

  <defs>
    <clipPath id="f43119d4-ddf7-43ed-a184-44d69b27fe02" transform="translate(-138.19 -139.24)">
      <rect id="b0a200ee-1c8b-4833-9b67-01c34144e3c6" data-name="SVGID" width="250" height="250" style="fill:none"></rect>
    </clipPath>
  </defs>
  <g style="clip-path: url(&quot;#f43119d4-ddf7-43ed-a184-44d69b27fe02&quot;); transform: translate(104.635px, 138.463px);">
    <g style="transform: translateX(33px);">
      <ellipse cx="38.83" cy="26.67" rx="1.46" ry="1.85" style="fill:#bf9b67"></ellipse>
      <ellipse cx="38.83" cy="30.37" rx="1.46" ry="1.85" style="fill:#bf9b67"></ellipse>
      <ellipse cx="38.83" cy="34.08" rx="1.46" ry="1.85" style="fill:#bf9b67"></ellipse>
      <ellipse cx="38.83" cy="37.79" rx="1.46" ry="1.85" style="fill:#bf9b67"></ellipse>
      <ellipse cx="38.83" cy="41.5" rx="1.46" ry="1.85" style="fill:#bf9b67"></ellipse>
      <ellipse cx="38.83" cy="45.2" rx="1.46" ry="1.85" style="fill:#bf9b67"></ellipse>
      <ellipse cx="38.83" cy="48.91" rx="1.46" ry="1.85" style="fill:#bf9b67"></ellipse>
      <path d="M158.56,180a20.37,20.37,0,1,1,20.36-20.37A20.4,20.4,0,0,1,158.56,180Zm0-37.74a17.37,17.37,0,1,0,17.36,17.37A17.39,17.39,0,0,0,158.56,142.24Z" transform="translate(-138.19 -139.24)" style="fill:#1d1d1b"></path>
    </g>
  </g>

  <g id="ad5fb038-53bd-4982-8999-873b732b6b54" data-name="Calque 2" style="transform: translate(51.16px, 1px);">
    <g id="bb04a177-9f74-4306-a3a5-2983f6682f7d" data-name="Calque 1" style="transform: translateY(52px);">
      <path d="M73.84,0C33.06,0,0,25.09,0,56V181.17a6.53,6.53,0,0,0,6.52,6.53H41.13A65.36,65.36,0,0,1,8.46,131.1V79C12.89,63.41,23.72,50,36.83,40.93A17.29,17.29,0,0,0,39.62,44c5.1,6.37,18.49,10.91,34.22,10.91S103,50.38,108.06,44a16.55,16.55,0,0,0,2.79-3.08C124,50,134.79,63.41,139.22,79V131.1a65.34,65.34,0,0,1-32.67,56.6h34.61a6.53,6.53,0,0,0,6.52-6.53V56C147.68,25.09,114.62,0,73.84,0Z" class="first-color" style="fill: rgb(196, 139, 16);"></path>
    </g>
  </g>
</svg>