<svg id="svgBuilder" class="avatar-frame p-2 p-md-5 bg-white " xmlns="http://www.w3.org/2000/svg" viewBox="0 0 250 280" style="opacity: 1;">
  <defs>
    <clipPath id="b9b980b5-38c2-4c2c-b5a3-0250ab56908c" transform="translate(-59.5 -53.5)">
      <rect width="250" height="250" style="fill: none"></rect>
    </clipPath>
  </defs>
  <g id="ae1cd98a-2feb-47b9-a86d-6e1f11f5716f" data-name="SKIN" style="transform: translate(59.7px, 54px);">
    <g style="clip-path: url(#b9b980b5-38c2-4c2c-b5a3-0250ab56908c)">
      <g>
        <path class="first-color" d="M124.8,53.5a65.32,65.32,0,0,0-65.3,65.3v65.3a65.3,65.3,0,1,0,130.6,0V118.8A65.32,65.32,0,0,0,124.8,53.5Z" transform="translate(-59.5 -53.5)" style="fill: rgb(245, 221, 203);"></path>
        <path d="M124.8,53.5v196a65.32,65.32,0,0,0,65.3-65.3V118.9A65.34,65.34,0,0,0,124.8,53.5Z" transform="translate(-59.5 -53.5)" style="fill: #010202;opacity: 0.03;isolation: isolate"></path>
      </g>
    </g>
  </g>

  <defs>
    <clipPath id="e633eca7-c71d-4265-a26f-38ec1c972c4d" transform="translate(-61.68 -123.08)">
      <rect width="250" height="250" style="fill: none"></rect>
    </clipPath>
  </defs>
  <g id="a651f7ea-6927-4e38-812c-8addb090c128" data-name="EYES" style="transform: translate(63.23px, 121.98px);">
    <g style="clip-path: url(#e633eca7-c71d-4265-a26f-38ec1c972c4d)">
      <g>
        <circle cx="28.32" cy="36.52" r="16.5" style="fill: #f6f6f6"></circle>
        <circle class="first-color" cx="28.32" cy="36.52" r="11.4" style="fill: #1f5da1"></circle>
        <circle cx="28.32" cy="36.52" r="7"></circle>
        <ellipse cx="83" cy="164.01" rx="4.4" ry="3.1" transform="translate(-132.57 -59.61) rotate(-30)" style="fill: #fff"></ellipse>
        <circle cx="23.42" cy="32.62" r="2.6" style="fill: #fff"></circle>
        <circle cx="95.12" cy="36.52" r="16.5" style="fill: #f6f6f6"></circle>
        <circle class="first-color" cx="95.12" cy="36.52" r="11.4" style="fill: #1f5da1"></circle>
        <circle cx="95.12" cy="36.52" r="7"></circle>
        <path class="color-eyebrows" d="M177.6,139.4l-40.4,2.9a8.17,8.17,0,0,1-8.7-7.6h0a8.17,8.17,0,0,1,7.6-8.7l40.4-2.9a8.17,8.17,0,0,1,8.7,7.6h0A8.17,8.17,0,0,1,177.6,139.4Z" transform="translate(-61.68 -123.08)" style="fill: rgb(158, 112, 32);"></path>
        <path class="color-eyebrows" d="M69.3,139.4l40.4,2.9a8.17,8.17,0,0,0,8.7-7.6h0a8.17,8.17,0,0,0-7.6-8.7l-40.4-2.9a8.17,8.17,0,0,0-8.7,7.6h0A8.17,8.17,0,0,0,69.3,139.4Z" transform="translate(-61.68 -123.08)" style="fill: rgb(158, 112, 32);"></path>
        <ellipse cx="149.8" cy="164.01" rx="4.4" ry="3.1" transform="translate(-123.62 -26.21) rotate(-30)" style="fill: #fff"></ellipse>
        <circle cx="90.22" cy="32.62" r="2.6" style="fill: #fff"></circle>
      </g>
    </g>
  </g>

  <defs>
    <clipPath id="efb50588-46f8-450f-9eb6-9b79a95f01cc" transform="translate(-109.5 -205.6)">
      <rect width="250" height="250" style="fill: none"></rect>
    </clipPath>
  </defs>
  <g id="a483ccee-3e19-4ccf-91f0-27460b648a73" data-name="MOUTH" style="transform: translate(109.55px, 200px);">
    <g style="clip-path: url(#efb50588-46f8-450f-9eb6-9b79a95f01cc)">
      <path d="M109.5,205.6c3,.6,5.6,1.3,8.2,1.8a69.8,69.8,0,0,0,7.4,1.1,35.85,35.85,0,0,0,7.3-.2,77.44,77.44,0,0,0,8-1.7,14.7,14.7,0,0,1-6.6,6.2,18,18,0,0,1-9.2,1.7,20.16,20.16,0,0,1-8.7-2.7A18.06,18.06,0,0,1,109.5,205.6Z" transform="translate(-109.5 -205.6)"></path>
    </g>
  </g>

  <defs>
    <clipPath id="ba2a78bd-2a49-4e5c-92a5-5baec2b79135" transform="translate(15.7 -1.7)">
      <rect width="250" height="250" style="fill: none"></rect>
    </clipPath>
    <clipPath id="aaa5cbb9-7d0a-4b3c-b4f0-d6287d3872ac" transform="translate(15.7 -1.7)">
      <path d="M229.8,143.1a42.37,42.37,0,0,0,2.9-15.2,41.47,41.47,0,0,0-17-33.5,62.27,62.27,0,0,0-93.8-78.6A49.95,49.95,0,0,0,42.5,48.5a41.55,41.55,0,0,0-14.7,64.2,37.49,37.49,0,0,0-9,45.8,44.89,44.89,0,0,0,56.3,68.7,64.75,64.75,0,0,1-15.2-41.8V128h0a41.67,41.67,0,0,0,37-22.5,48.87,48.87,0,0,0,14.8-3.8,62.4,62.4,0,0,0,78.9,17.6v66.2a64.94,64.94,0,0,1-9.1,33.3,44.87,44.87,0,0,0,69.7-37.4A45.55,45.55,0,0,0,229.8,143.1Z" style="fill: none"></path>
    </clipPath>
  </defs>
  <g id="fe926376-48d8-48d0-84be-ec7d675fc81e" data-name="HAIR" style="transform: translate(-16px, 1px);">
    <g style="clip-path: url(#ba2a78bd-2a49-4e5c-92a5-5baec2b79135)">
      <g>
        <path d="M215.7,110.6c5-9-20-92.7-54.4-92.7A61.77,61.77,0,0,0,121.9,32,49.95,49.95,0,0,0,42.5,64.7C28.2,71.3,59.9,217.5,59.9,201.5V144.1h0a41.67,41.67,0,0,0,37-22.5,48.87,48.87,0,0,0,14.8-3.8,62.4,62.4,0,0,0,78.9,17.6v66.2C190.4,213.7,226,118.2,215.7,110.6Z" transform="translate(15.7 -1.7)" style="fill: #010202;opacity: 0.10000000149011612;isolation: isolate"></path>
        <path class="first-color" d="M229.8,143.1a42.37,42.37,0,0,0,2.9-15.2,41.47,41.47,0,0,0-17-33.5,62.27,62.27,0,0,0-93.8-78.6A49.95,49.95,0,0,0,42.5,48.5a41.55,41.55,0,0,0-14.7,64.2,37.49,37.49,0,0,0-9,45.8,44.89,44.89,0,0,0,56.3,68.7,64.75,64.75,0,0,1-15.2-41.8V128h0a41.67,41.67,0,0,0,37-22.5,48.87,48.87,0,0,0,14.8-3.8,62.4,62.4,0,0,0,78.9,17.6v66.2a64.94,64.94,0,0,1-9.1,33.3,44.87,44.87,0,0,0,69.7-37.4A45.55,45.55,0,0,0,229.8,143.1Z" transform="translate(15.7 -1.7)" style="fill: rgb(158, 112, 32);"></path>
        <g>
          <g style="clip-path: url(#aaa5cbb9-7d0a-4b3c-b4f0-d6287d3872ac)">
            <path d="M44.8,115.8c46.1-1.9,54.7-36.4,54.7-36.4L98.1,95.8s6.8,6,32.3-6.6c-15,12.2-20.4,13.3-31.9,19s-9.7,39.4-9.7,39.4L80.1,248l-95.8-25.1,30.6-59.6S3.7,197.1,28.9,194,46.2,126,44.8,115.8Z" transform="translate(15.7 -1.7)" style="fill: rgba(0,0,0,0.11)"></path>
          </g>
          <g style="clip-path: url(#aaa5cbb9-7d0a-4b3c-b4f0-d6287d3872ac)">
            <path d="M13.5,127.4s-5.8,34,20.7,41.8C13,148.1,19,123.4,19,123.4Z" transform="translate(15.7 -1.7)" style="fill: rgba(0,0,0,0.11)"></path>
          </g>
          <g style="clip-path: url(#aaa5cbb9-7d0a-4b3c-b4f0-d6287d3872ac)">
            <path d="M15.6,74.8s-5.8,34,20.7,41.8C15.1,95.5,21.1,70.8,21.1,70.8Z" transform="translate(15.7 -1.7)" style="fill: rgba(0,0,0,0.11)"></path>
          </g>
          <g style="clip-path: url(#aaa5cbb9-7d0a-4b3c-b4f0-d6287d3872ac)">
            <path d="M117,107.9s54.9,20.8,85.2-2.3c-13.9,20.4-29.6,24.8-38.7,24.8C154.2,130.5,123.4,133.4,117,107.9Z" transform="translate(15.7 -1.7)" style="fill: rgba(0,0,0,0.11)"></path>
          </g>
          <g style="clip-path: url(#aaa5cbb9-7d0a-4b3c-b4f0-d6287d3872ac)">
            <path d="M198,111.2s-5.6,78.4,19.5,81.1,26.7-31,25.7-36.2S280.6,193,280.6,193l-47.9,43.5-83.9-18.4,30.2-100Z" transform="translate(15.7 -1.7)" style="fill: rgba(0,0,0,0.11)"></path>
          </g>
          <g style="clip-path: url(#aaa5cbb9-7d0a-4b3c-b4f0-d6287d3872ac)">
            <path d="M123.6,51.9s-1.7,19,19.4,18.8C130.4,64.5,126.4,59.4,123.6,51.9Z" transform="translate(15.7 -1.7)" style="fill: rgba(0,0,0,0.11)"></path>
          </g>
        </g>
      </g>
    </g>
  </g>

  <g id="a0deadc3-9ec0-449d-b3f4-8ccec28d34d1" data-name="Calque 2" style="transform: translate(85.285px, 179.174px);">
    <g id="ac33bc71-d016-4b81-b283-88de41e62a8c" data-name="Calque 1" style="transform: translateY(10px);">
      <g>
        <rect x="-0.42" y="3.38" width="43.84" height="16.38" rx="8.19" transform="matrix(0.97, -0.25, 0.25, 0.97, -2.18, 5.64)" class="first-color" style="fill: rgb(158, 112, 32);"></rect>
        <rect x="36.01" y="3.38" width="43.84" height="16.38" rx="8.19" transform="translate(111.23 37.02) rotate(-165.77)" class="first-color" style="fill: rgb(158, 112, 32);"></rect>
      </g>
    </g>
  </g>

  <g id="b8fb0b44-ffa0-4773-b20b-26a2ade0610b" data-name="Calque 2" style="transform: translate(59.55px, 133.637px);">
    <g id="be9e3fef-dad1-4b40-851e-7643ac638c4d" data-name="Calque 1">
      <g>
        <circle cx="33.95" cy="23.45" r="21.95" class="first-color-stroke" style="fill: none;stroke: #1d1d1b;stroke-miterlimit: 10;stroke-width: 3px"></circle>
        <circle cx="96.95" cy="23.45" r="21.95" class="first-color-stroke" style="fill: none;stroke: #1d1d1b;stroke-miterlimit: 10;stroke-width: 3px"></circle>
        <path d="M55.91,23.45s3-2.57,9.54-2.57S75,23.45,75,23.45" class="first-color-stroke" style="fill: none;stroke: #1d1d1b;stroke-miterlimit: 10;stroke-width: 3px"></path>
        <line x1="12" y1="20.37" y2="20.37" class="first-color-stroke" style="fill: none;stroke: #1d1d1b;stroke-miterlimit: 10;stroke-width: 3px"></line>
        <line x1="130.9" y1="20.37" x2="118.39" y2="20.37" class="first-color-stroke" style="fill: none;stroke: #1d1d1b;stroke-miterlimit: 10;stroke-width: 3px"></line>
      </g>
    </g>
  </g>
</svg>