<svg id="svgBuilder" class="avatar-frame p-2 p-md-5 bg-white " xmlns="http://www.w3.org/2000/svg" viewBox="0 0 250 280" style="opacity: 1;">
  <defs>
    <clipPath id="b9b980b5-38c2-4c2c-b5a3-0250ab56908c" transform="translate(-59.5 -53.5)">
      <rect width="250" height="250" style="fill: none"></rect>
    </clipPath>
  </defs>
  <g id="ae1cd98a-2feb-47b9-a86d-6e1f11f5716f" data-name="SKIN" style="transform: translate(59.7px, 54px);">
    <g style="clip-path: url(#b9b980b5-38c2-4c2c-b5a3-0250ab56908c)">
      <g>
        <path class="first-color" d="M124.8,53.5a65.32,65.32,0,0,0-65.3,65.3v65.3a65.3,65.3,0,1,0,130.6,0V118.8A65.32,65.32,0,0,0,124.8,53.5Z" transform="translate(-59.5 -53.5)" style="fill: rgb(255, 207, 189);"></path>
        <path d="M124.8,53.5v196a65.32,65.32,0,0,0,65.3-65.3V118.9A65.34,65.34,0,0,0,124.8,53.5Z" transform="translate(-59.5 -53.5)" style="fill: #010202;opacity: 0.03;isolation: isolate"></path>
      </g>
    </g>
  </g>

  <defs>
    <clipPath id="beda9165-2264-4a53-a072-0a095227532f" transform="translate(-62.2 -124.9)">
      <rect width="250" height="250" style="fill: none"></rect>
    </clipPath>
  </defs>
  <g id="b470c38d-1d72-4985-984b-abe0a058d5dc" data-name="EYES" style="transform: translate(63.4px, 123.9px);">
    <g style="clip-path: url(#beda9165-2264-4a53-a072-0a095227532f)">
      <g>
        <circle cx="27.9" cy="34.6" r="16.5" style="fill: #f6f6f6"></circle>
        <circle class="first-color" cx="27.9" cy="34.6" r="11.4" style="fill: #1f5da1"></circle>
        <circle cx="27.9" cy="34.6" r="7"></circle>
        <ellipse cx="83.09" cy="163.92" rx="4.4" ry="3.1" transform="translate(-133.02 -61.39) rotate(-30)" style="fill: #fff"></ellipse>
        <circle cx="23" cy="30.7" r="2.6" style="fill: #fff"></circle>
        <path class="color-eyebrows" d="M111.7,141.1l-39.5,9a8.22,8.22,0,0,1-9.8-6.2h0a8.22,8.22,0,0,1,6.2-9.8l39.5-9a8.22,8.22,0,0,1,9.8,6.2h0A8.3,8.3,0,0,1,111.7,141.1Z" transform="translate(-62.2 -124.9)" style="fill: rgb(250, 230, 121);"></path>
        <circle cx="94.7" cy="34.6" r="16.5" style="fill: #f6f6f6"></circle>
        <circle class="first-color" cx="94.7" cy="34.6" r="11.4" style="fill: #1f5da1"></circle>
        <circle cx="94.7" cy="34.6" r="7"></circle>
        <ellipse cx="149.89" cy="163.91" rx="4.4" ry="3.1" transform="translate(-124.07 -27.99) rotate(-30)" style="fill: #fff"></ellipse>
        <circle cx="89.8" cy="30.7" r="2.6" style="fill: #fff"></circle>
        <path class="color-eyebrows" d="M177.2,145.8H136.7a8.24,8.24,0,0,1-8.2-8.2h0a8.24,8.24,0,0,1,8.2-8.2h40.5a8.24,8.24,0,0,1,8.2,8.2h0A8.24,8.24,0,0,1,177.2,145.8Z" transform="translate(-62.2 -124.9)" style="fill: rgb(250, 230, 121);"></path>
      </g>
    </g>
  </g>

  <defs>
    <clipPath id="e84959a1-978a-4e31-b119-968aab7391d9" transform="translate(-85.8 -187.4)">
      <rect width="250" height="250" style="fill: none"></rect>
    </clipPath>
    <clipPath id="fb59a04e-e56e-4f32-bd22-9c42c64d1169" transform="translate(-85.8 -187.4)">
      <path d="M125,197.1c11.4,0,20.3,3.4,26.4,10.1A7.72,7.72,0,0,1,140,217.6c-3.1-3.4-8.1-5.1-15.1-5.1s-11.9,1.7-15.1,5.1a7.83,7.83,0,0,1-10.9.5,7.73,7.73,0,0,1-.5-10.9C104.7,200.5,113.6,197.1,125,197.1Z" style="fill: none"></path>
    </clipPath>
  </defs>
  <g id="e4a11c08-bc88-471a-ba24-bdbcc2fe8a6f" data-name="MOUTH" style="transform: translate(85.8px, 200px);">
    <g style="clip-path: url(#e84959a1-978a-4e31-b119-968aab7391d9); transform: translateY(-5px);">
      <g>
        <g style="clip-path: url(#fb59a04e-e56e-4f32-bd22-9c42c64d1169)">
          <path d="M125,197.1c11.4,0,20.3,3.4,26.4,10.1A7.72,7.72,0,0,1,140,217.6c-3.1-3.4-8.1-5.1-15.1-5.1s-11.9,1.7-15.1,5.1a7.83,7.83,0,0,1-10.9.5,7.73,7.73,0,0,1-.5-10.9C104.7,200.5,113.6,197.1,125,197.1Z" transform="translate(-85.8 -187.4)"></path>
        </g>
        <g style="clip-path: url(#fb59a04e-e56e-4f32-bd22-9c42c64d1169)">
          <path d="M90.7,191.4a4.91,4.91,0,0,0-4.9,4.9v4.9a4.9,4.9,0,1,0,9.8,0v-4.9A4.91,4.91,0,0,0,90.7,191.4Z" transform="translate(-85.8 -187.4)" style="fill: #fff"></path>
        </g>
        <g style="clip-path: url(#fb59a04e-e56e-4f32-bd22-9c42c64d1169)">
          <path d="M159.3,191.4a4.91,4.91,0,0,0-4.9,4.9v4.9a4.9,4.9,0,0,0,9.8,0v-4.9A4.91,4.91,0,0,0,159.3,191.4Z" transform="translate(-85.8 -187.4)" style="fill: #fff"></path>
        </g>
        <g style="clip-path: url(#fb59a04e-e56e-4f32-bd22-9c42c64d1169)">
          <path d="M100.5,187.4a4.91,4.91,0,0,0-4.9,4.9v4.9a4.9,4.9,0,0,0,9.8,0v-4.9A4.91,4.91,0,0,0,100.5,187.4Z" transform="translate(-85.8 -187.4)" style="fill: #fff"></path>
        </g>
        <g style="clip-path: url(#fb59a04e-e56e-4f32-bd22-9c42c64d1169)">
          <path d="M110.3,189.4a4.91,4.91,0,0,0-4.9,4.9v4.9a4.9,4.9,0,0,0,9.8,0v-4.9A4.91,4.91,0,0,0,110.3,189.4Z" transform="translate(-85.8 -187.4)" style="fill: #fff"></path>
        </g>
        <g style="clip-path: url(#fb59a04e-e56e-4f32-bd22-9c42c64d1169)">
          <path d="M120.1,191.4a4.91,4.91,0,0,0-4.9,4.9v4.9a4.9,4.9,0,0,0,9.8,0v-4.9A4.91,4.91,0,0,0,120.1,191.4Z" transform="translate(-85.8 -187.4)" style="fill: #fff"></path>
        </g>
        <g style="clip-path: url(#fb59a04e-e56e-4f32-bd22-9c42c64d1169)">
          <path d="M129.9,191.4a4.91,4.91,0,0,0-4.9,4.9v4.9a4.9,4.9,0,0,0,9.8,0v-4.9A4.91,4.91,0,0,0,129.9,191.4Z" transform="translate(-85.8 -187.4)" style="fill: #fff"></path>
        </g>
        <g style="clip-path: url(#fb59a04e-e56e-4f32-bd22-9c42c64d1169)">
          <path d="M139.7,189.4a4.91,4.91,0,0,0-4.9,4.9v4.9a4.9,4.9,0,0,0,9.8,0v-4.9A4.91,4.91,0,0,0,139.7,189.4Z" transform="translate(-85.8 -187.4)" style="fill: #fff"></path>
        </g>
        <g style="clip-path: url(#fb59a04e-e56e-4f32-bd22-9c42c64d1169)">
          <path d="M149.5,187.4a4.91,4.91,0,0,0-4.9,4.9v4.9a4.9,4.9,0,0,0,9.8,0v-4.9A4.91,4.91,0,0,0,149.5,187.4Z" transform="translate(-85.8 -187.4)" style="fill: #fff"></path>
        </g>
        <g style="clip-path: url(#fb59a04e-e56e-4f32-bd22-9c42c64d1169)">
          <rect x="9.8" y="2.4" width="58.7" height="9" style="fill: #fff"></rect>
        </g>
        <g style="clip-path: url(#fb59a04e-e56e-4f32-bd22-9c42c64d1169)">
          <ellipse cx="39.2" cy="34.6" rx="18.3" ry="12.8" style="fill: #991914"></ellipse>
        </g>
      </g>
    </g>
  </g>

  <defs>
    <clipPath id="b68c1221-4b61-47a4-bc5b-d21e25b28085" transform="translate(-18 -27.4)">
      <rect width="250" height="250" style="fill: none"></rect>
    </clipPath>
    <clipPath id="e8ba5be9-452f-4c80-93b7-31fe50be9009" transform="translate(-18 -27.4)">
      <path d="M208.6,166.1V102.4c0-41.4-37.4-75-83.6-75S41.4,61,41.4,102.4v63.7a32.7,32.7,0,0,0,18.3,59.8,33.52,33.52,0,0,0,13.8-3,65.3,65.3,0,0,1-13.8-40.1V117.5a63.38,63.38,0,0,1,3.5-21c10.9,17,34.5,18.8,61.9,18.8s51-1.8,61.9-18.8a66.54,66.54,0,0,1,3.5,21v65.3a65.3,65.3,0,0,1-13.8,40.1,32,32,0,0,0,13.8,3,32.71,32.71,0,0,0,32.7-32.7A33.32,33.32,0,0,0,208.6,166.1Z" style="fill: none"></path>
    </clipPath>
  </defs>
  <g id="b686a48d-c591-4471-8904-859868c119b4" data-name="HAIR" style="transform: translate(17.5px, 1px);">
    <g style="clip-path: url(#b68c1221-4b61-47a4-bc5b-d21e25b28085); transform:translate(0.4px, 27.8px)">
      <g style=";">
        <path d="M208.6,122v-1.3c0-41.4-37.4-75-83.6-75s-83.6,33.6-83.6,75c0,.5,18.3,95.4,18.3,80.3V135.7a63.38,63.38,0,0,1,3.5-21c10.9,17,34.5,18.8,61.9,18.8s51-1.8,61.9-18.8a66.54,66.54,0,0,1,3.5,21V201C190.3,216,208.6,122.5,208.6,122Z" transform="translate(-18 -27.4)" style="fill: #010202;opacity: 0.10000000149011612;isolation: isolate"></path>
        <path class="first-color" d="M208.6,166.1V102.4c0-41.4-37.4-75-83.6-75S41.4,61,41.4,102.4v63.7a32.7,32.7,0,0,0,18.3,59.8,33.52,33.52,0,0,0,13.8-3,65.3,65.3,0,0,1-13.8-40.1V117.5a63.38,63.38,0,0,1,3.5-21c10.9,17,34.5,18.8,61.9,18.8s51-1.8,61.9-18.8a66.54,66.54,0,0,1,3.5,21v65.3a65.3,65.3,0,0,1-13.8,40.1,32,32,0,0,0,13.8,3,32.71,32.71,0,0,0,32.7-32.7A33.32,33.32,0,0,0,208.6,166.1Z" transform="translate(-18 -27.4)" style="fill: rgb(250, 230, 121);"></path>
        <g style="clip-path: url(#e8ba5be9-452f-4c80-93b7-31fe50be9009)">
          <path d="M24.5,187.9c2.5,12.2,26.2,26.8,28.9,1.4S48,110.1,59.7,82.6c14.8,17.3,29.1,28.2,65.3,26.2,47.7-2.7,56.8-17.7,64-30.9,13.6,21.7,9.2,87.4,5.8,110.9s30.4,13.2,25.5-8.4,28.4,28,28.4,28-9.2,82.2-10.2,82.2S18,266.1,18,260.3,22,175.7,24.5,187.9Z" transform="translate(-18 -27.4)" style="fill: rgba(0,0,0,0.11)"></path>
        </g>
      </g>
    </g>
  </g>




</svg>