<svg id="svgBuilder" class="avatar-frame p-2 p-md-5 bg-white " xmlns="http://www.w3.org/2000/svg" viewBox="0 0 250 280" style="opacity: 1;">
  <defs>
    <clipPath id="b9b980b5-38c2-4c2c-b5a3-0250ab56908c" transform="translate(-59.5 -53.5)">
      <rect width="250" height="250" style="fill: none"></rect>
    </clipPath>
  </defs>
  <g id="ae1cd98a-2feb-47b9-a86d-6e1f11f5716f" data-name="SKIN" style="transform: translate(59.7px, 54px);">
    <g style="clip-path: url(#b9b980b5-38c2-4c2c-b5a3-0250ab56908c)">
      <g>
        <path class="first-color" d="M124.8,53.5a65.32,65.32,0,0,0-65.3,65.3v65.3a65.3,65.3,0,1,0,130.6,0V118.8A65.32,65.32,0,0,0,124.8,53.5Z" transform="translate(-59.5 -53.5)" style="fill: rgb(235, 140, 93);"></path>
        <path d="M124.8,53.5v196a65.32,65.32,0,0,0,65.3-65.3V118.9A65.34,65.34,0,0,0,124.8,53.5Z" transform="translate(-59.5 -53.5)" style="fill: #010202;opacity: 0.03;isolation: isolate"></path>
      </g>
    </g>
  </g>

  <defs>
    <clipPath id="beda9165-2264-4a53-a072-0a095227532f" transform="translate(-62.2 -124.9)">
      <rect width="250" height="250" style="fill: none"></rect>
    </clipPath>
  </defs>
  <g id="b470c38d-1d72-4985-984b-abe0a058d5dc" data-name="EYES" style="transform: translate(63.4px, 123.9px);">
    <g style="clip-path: url(#beda9165-2264-4a53-a072-0a095227532f)">
      <g>
        <circle cx="27.9" cy="34.6" r="16.5" style="fill: #f6f6f6"></circle>
        <circle class="first-color" cx="27.9" cy="34.6" r="11.4" style="fill: rgb(143, 180, 235);"></circle>
        <circle cx="27.9" cy="34.6" r="7"></circle>
        <ellipse cx="83.09" cy="163.92" rx="4.4" ry="3.1" transform="translate(-133.02 -61.39) rotate(-30)" style="fill: #fff"></ellipse>
        <circle cx="23" cy="30.7" r="2.6" style="fill: #fff"></circle>
        <path class="color-eyebrows" d="M111.7,141.1l-39.5,9a8.22,8.22,0,0,1-9.8-6.2h0a8.22,8.22,0,0,1,6.2-9.8l39.5-9a8.22,8.22,0,0,1,9.8,6.2h0A8.3,8.3,0,0,1,111.7,141.1Z" transform="translate(-62.2 -124.9)" style="fill: rgb(217, 217, 217);"></path>
        <circle cx="94.7" cy="34.6" r="16.5" style="fill: #f6f6f6"></circle>
        <circle class="first-color" cx="94.7" cy="34.6" r="11.4" style="fill: rgb(143, 180, 235);"></circle>
        <circle cx="94.7" cy="34.6" r="7"></circle>
        <ellipse cx="149.89" cy="163.91" rx="4.4" ry="3.1" transform="translate(-124.07 -27.99) rotate(-30)" style="fill: #fff"></ellipse>
        <circle cx="89.8" cy="30.7" r="2.6" style="fill: #fff"></circle>
        <path class="color-eyebrows" d="M177.2,145.8H136.7a8.24,8.24,0,0,1-8.2-8.2h0a8.24,8.24,0,0,1,8.2-8.2h40.5a8.24,8.24,0,0,1,8.2,8.2h0A8.24,8.24,0,0,1,177.2,145.8Z" transform="translate(-62.2 -124.9)" style="fill: rgb(217, 217, 217);"></path>
      </g>
    </g>
  </g>

  <defs>
    <clipPath id="fb31c9e0-c18e-4a1c-b864-fb8bf4960266" transform="translate(-85.8 -192)">
      <rect width="250" height="250" style="fill: none"></rect>
    </clipPath>
    <clipPath id="be026ed7-8f9a-4b5b-8faf-10ac38dc631d" transform="translate(-85.8 -192)">
      <path d="M144.3,217.3H105.7a8.71,8.71,0,0,1-8.7-8.7h0a8.71,8.71,0,0,1,8.7-8.7h38.6a8.71,8.71,0,0,1,8.7,8.7h0A8.71,8.71,0,0,1,144.3,217.3Z" style="fill: none"></path>
    </clipPath>
  </defs>
  <g id="b83eeea3-3ed5-44b7-b6de-707600f6e364" data-name="MOUTH" style="transform: translate(85.8px, 200px);">
    <g style="clip-path: url(#fb31c9e0-c18e-4a1c-b864-fb8bf4960266)">
      <g>
        <g style="clip-path: url(#be026ed7-8f9a-4b5b-8faf-10ac38dc631d)">
          <path d="M144.3,217.3H105.7a8.71,8.71,0,0,1-8.7-8.7h0a8.71,8.71,0,0,1,8.7-8.7h38.6a8.71,8.71,0,0,1,8.7,8.7h0A8.71,8.71,0,0,1,144.3,217.3Z" transform="translate(-85.8 -192)"></path>
        </g>
        <g style="clip-path: url(#be026ed7-8f9a-4b5b-8faf-10ac38dc631d)">
          <path d="M90.7,193.6a4.91,4.91,0,0,0-4.9,4.9v4.9a4.9,4.9,0,1,0,9.8,0v-4.9A4.91,4.91,0,0,0,90.7,193.6Z" transform="translate(-85.8 -192)" style="fill: #fff"></path>
        </g>
        <g style="clip-path: url(#be026ed7-8f9a-4b5b-8faf-10ac38dc631d)">
          <path d="M159.3,193.6a4.91,4.91,0,0,0-4.9,4.9v4.9a4.9,4.9,0,0,0,9.8,0v-4.9A4.91,4.91,0,0,0,159.3,193.6Z" transform="translate(-85.8 -192)" style="fill: #fff"></path>
        </g>
        <g style="clip-path: url(#be026ed7-8f9a-4b5b-8faf-10ac38dc631d)">
          <path d="M100.5,193.6a4.91,4.91,0,0,0-4.9,4.9v4.9a4.9,4.9,0,1,0,9.8,0v-4.9A4.91,4.91,0,0,0,100.5,193.6Z" transform="translate(-85.8 -192)" style="fill: #fff"></path>
        </g>
        <g style="clip-path: url(#be026ed7-8f9a-4b5b-8faf-10ac38dc631d)">
          <path d="M110.3,193.6a4.91,4.91,0,0,0-4.9,4.9v4.9a4.9,4.9,0,0,0,9.8,0v-4.9A4.91,4.91,0,0,0,110.3,193.6Z" transform="translate(-85.8 -192)" style="fill: #fff"></path>
        </g>
        <g style="clip-path: url(#be026ed7-8f9a-4b5b-8faf-10ac38dc631d)">
          <path d="M120.1,193.6a4.91,4.91,0,0,0-4.9,4.9v4.9a4.9,4.9,0,0,0,9.8,0v-4.9A4.91,4.91,0,0,0,120.1,193.6Z" transform="translate(-85.8 -192)" style="fill: #fff"></path>
        </g>
        <g style="clip-path: url(#be026ed7-8f9a-4b5b-8faf-10ac38dc631d)">
          <path d="M129.9,193.6a4.91,4.91,0,0,0-4.9,4.9v4.9a4.9,4.9,0,0,0,9.8,0v-4.9A4.91,4.91,0,0,0,129.9,193.6Z" transform="translate(-85.8 -192)" style="fill: #fff"></path>
        </g>
        <g style="clip-path: url(#be026ed7-8f9a-4b5b-8faf-10ac38dc631d)">
          <path d="M139.7,193.6a4.91,4.91,0,0,0-4.9,4.9v4.9a4.9,4.9,0,0,0,9.8,0v-4.9A4.91,4.91,0,0,0,139.7,193.6Z" transform="translate(-85.8 -192)" style="fill: #fff"></path>
        </g>
        <g style="clip-path: url(#be026ed7-8f9a-4b5b-8faf-10ac38dc631d)">
          <path d="M149.5,193.6a4.91,4.91,0,0,0-4.9,4.9v4.9a4.9,4.9,0,1,0,9.8,0v-4.9A4.91,4.91,0,0,0,149.5,193.6Z" transform="translate(-85.8 -192)" style="fill: #fff"></path>
        </g>
        <g style="clip-path: url(#be026ed7-8f9a-4b5b-8faf-10ac38dc631d)">
          <rect x="9.8" width="58.7" height="9" style="fill: #fff"></rect>
        </g>
        <g style="clip-path: url(#be026ed7-8f9a-4b5b-8faf-10ac38dc631d)">
          <ellipse cx="39.2" cy="31.3" rx="18.3" ry="12.8" style="fill: #991914"></ellipse>
        </g>
      </g>
    </g>
  </g>

  <defs>
    <clipPath id="e83a5ff1-20c7-4e51-9316-6ed49d1ff869" transform="translate(-56.5 -20.65)">
      <rect width="250" height="250" style="fill: none"></rect>
    </clipPath>
    <clipPath id="f400526c-0c00-46ba-a95f-678b8259aae1" transform="translate(-56.5 -20.65)">
      <path d="M150.8,56.7c3.4-6.8,5.1-13.6,3.6-17.2-2.9-1.7-9.8.2-16.7,4.2-.3-6.8-1.9-12.7-4.7-14.9-3.3-.2-8.4,4.6-12.6,11.1-3.9-6.3-8.6-11.2-12.3-11.8-4.3,2.2-6.7,15.6-4.7,27C93.1,58.4,86.3,64,86.3,70.3c0,10.1,17.3,18.3,38.7,18.3s38.7-8.2,38.7-18.3C163.7,64.9,158.8,60.1,150.8,56.7Z" style="fill: none"></path>
    </clipPath>
  </defs>
  <g id="a3c6c147-2a49-4ebd-8b87-d8127e9247e3" data-name="HAIR" style="transform: translate(56.265px, 1px);">
    <g style="clip-path: url(#e83a5ff1-20c7-4e51-9316-6ed49d1ff869); transform:translateY(23px)">
      <g>
        <path class="first-color" d="M150.8,56.7c3.4-6.8,5.1-13.6,3.6-17.2-2.9-1.7-9.8.2-16.7,4.2-.3-6.8-1.9-12.7-4.7-14.9-3.3-.2-8.4,4.6-12.6,11.1-3.9-6.3-8.6-11.2-12.3-11.8-4.3,2.2-6.7,15.6-4.7,27C93.1,58.4,86.3,64,86.3,70.3c0,10.1,17.3,18.3,38.7,18.3s38.7-8.2,38.7-18.3C163.7,64.9,158.8,60.1,150.8,56.7Z" transform="translate(-56.5 -20.65)" style="fill: rgb(217, 217, 217);"></path>
        <g>
          <g style="clip-path: url(#f400526c-0c00-46ba-a95f-678b8259aae1)">
            <path d="M112.8,54.4s-12.1-13.5-4.7-26.2c-18-1.6-8,28-8,28S108,54.1,112.8,54.4Z" transform="translate(-56.5 -20.65)" style="fill: rgba(0,0,0,0.11)"></path>
          </g>
          <g style="clip-path: url(#f400526c-0c00-46ba-a95f-678b8259aae1)">
            <path d="M122.8,50.4s5.1-18.2,15.5-27-16.7,6.3-16.7,6.3l-1.1,10.2C120.4,39.9,123.4,45.5,122.8,50.4Z" transform="translate(-56.5 -20.65)" style="fill: rgba(0,0,0,0.11)"></path>
          </g>
          <g style="clip-path: url(#f400526c-0c00-46ba-a95f-678b8259aae1)">
            <path d="M140.6,49.6s9.2-11.9,21.8-11-20.6-2.2-20.6-2.2l-4.1,7.4a40.62,40.62,0,0,1,0,7.4C137.4,54.3,140.6,49.6,140.6,49.6Z" transform="translate(-56.5 -20.65)" style="fill: rgba(0,0,0,0.11)"></path>
          </g>
          <g style="clip-path: url(#f400526c-0c00-46ba-a95f-678b8259aae1)">
            <path d="M97.3,55c-27.5,21.7,37.2,43.1,66.4,15.3,68.1-22.7,0-16.3,0-16.3l1.6,38.5S56.5,106.8,56.5,105.2s18.4-50,18.4-50S112.3,50.5,97.3,55Z" transform="translate(-56.5 -20.65)" style="fill: rgba(0,0,0,0.11)"></path>
          </g>
        </g>
      </g>
    </g>
  </g>

  <defs>
    <clipPath id="be2c64e4-9fae-4989-b870-aff87c5daca1" transform="translate(-0.22 -116.97)">
      <path d="M65.45,0A65.45,65.45,0,0,0,0,65.45V130.9a65.45,65.45,0,1,0,130.9,0V65.45A65.45,65.45,0,0,0,65.45,0Z" style="fill: none"></path>
    </clipPath>
  </defs>
  <g id="e786f3e9-418c-4c46-9c54-c344c6cc85aa" data-name="Calque 2" style="transform: translate(59.55px, 171.184px);">
    <g id="bebaff1f-b03a-473e-9e8e-d56ded3dbc0e" data-name="Calque 1">
      <g style="clip-path: url(#be2c64e4-9fae-4989-b870-aff87c5daca1)">
        <path d="M119.12,136.1H12.22c-6.6,0-12-24.6-12-18v85.39a12,12,0,0,0,12,12h106.9a12,12,0,0,0,12-12V118.1C131.12,111.5,125.72,136.1,119.12,136.1Zm-21.6,33.74c0,6.6-9.4,12-16,12H49.82c-6.6,0-16-5.4-16-12v-14c0-6.6,9.4-12,16-12h31.7c6.6,0,16,5.4,16,12Z" transform="translate(-0.22 -116.97)" class="first-color" style="fill: rgb(217, 217, 217);"></path>
      </g>
    </g>
  </g>


</svg>