<svg id="svgBuilder" class="avatar-frame p-2 p-md-5 bg-white " xmlns="http://www.w3.org/2000/svg" viewBox="0 0 250 280" style="opacity: 1;">
  <defs>
    <clipPath id="b9b980b5-38c2-4c2c-b5a3-0250ab56908c" transform="translate(-59.5 -53.5)">
      <rect width="250" height="250" style="fill: none"></rect>
    </clipPath>
  </defs>
  <g id="ae1cd98a-2feb-47b9-a86d-6e1f11f5716f" data-name="SKIN" style="transform: translate(59.7px, 54px);">
    <g style="clip-path: url(#b9b980b5-38c2-4c2c-b5a3-0250ab56908c)">
      <g>
        <path class="first-color" d="M124.8,53.5a65.32,65.32,0,0,0-65.3,65.3v65.3a65.3,65.3,0,1,0,130.6,0V118.8A65.32,65.32,0,0,0,124.8,53.5Z" transform="translate(-59.5 -53.5)" style="fill: #f0c87f"></path>
        <path d="M124.8,53.5v196a65.32,65.32,0,0,0,65.3-65.3V118.9A65.34,65.34,0,0,0,124.8,53.5Z" transform="translate(-59.5 -53.5)" style="fill: #010202;opacity: 0.03;isolation: isolate"></path>
      </g>
    </g>
  </g>

  <defs>
    <clipPath id="afd17ad0-2703-488f-b090-8fea6d4763e7" transform="translate(-61.7 -125)">
      <rect width="250" height="250" style="fill: none"></rect>
    </clipPath>
  </defs>
  <g id="ad13c3f2-944b-4717-8d3d-32f2a8763496" data-name="EYES" style="transform: translate(63.15px, 123.5px);">
    <g style="clip-path: url(#afd17ad0-2703-488f-b090-8fea6d4763e7)">
      <g>
        <circle cx="28.4" cy="35" r="16.5" style="fill: #f6f6f6"></circle>
        <circle class="first-color" cx="28.4" cy="35" r="11.4" style="fill: #1f5da1"></circle>
        <circle cx="28.4" cy="35" r="7"></circle>
        <ellipse cx="83.08" cy="164.42" rx="4.4" ry="3.1" transform="translate(-132.78 -61.43) rotate(-30)" style="fill: #fff"></ellipse>
        <circle cx="23.5" cy="31.1" r="2.6" style="fill: #fff"></circle>
        <path class="color-eyebrows" d="M110.4,141.4H69.9a8.24,8.24,0,0,1-8.2-8.2h0a8.24,8.24,0,0,1,8.2-8.2h40.5a8.24,8.24,0,0,1,8.2,8.2h0A8.3,8.3,0,0,1,110.4,141.4Z" transform="translate(-61.7 -125)" style="fill: rgb(119, 88, 26);"></path>
        <circle cx="95.2" cy="35" r="16.5" style="fill: #f6f6f6"></circle>
        <circle class="first-color" cx="95.2" cy="35" r="11.4" style="fill: #1f5da1"></circle>
        <circle cx="95.2" cy="35" r="7"></circle>
        <ellipse cx="149.88" cy="164.42" rx="4.4" ry="3.1" transform="translate(-123.83 -28.03) rotate(-30)" style="fill: #fff"></ellipse>
        <circle cx="90.3" cy="31.1" r="2.6" style="fill: #fff"></circle>
        <path class="color-eyebrows" d="M177.2,141.4H136.7a8.24,8.24,0,0,1-8.2-8.2h0a8.24,8.24,0,0,1,8.2-8.2h40.5a8.24,8.24,0,0,1,8.2,8.2h0A8.3,8.3,0,0,1,177.2,141.4Z" transform="translate(-61.7 -125)" style="fill: rgb(119, 88, 26);"></path>
      </g>
    </g>
  </g>

  <defs>
    <clipPath id="efb50588-46f8-450f-9eb6-9b79a95f01cc" transform="translate(-109.5 -205.6)">
      <rect width="250" height="250" style="fill: none"></rect>
    </clipPath>
  </defs>
  <g id="a483ccee-3e19-4ccf-91f0-27460b648a73" data-name="MOUTH" style="transform: translate(109.55px, 200px);">
    <g style="clip-path: url(#efb50588-46f8-450f-9eb6-9b79a95f01cc)">
      <path d="M109.5,205.6c3,.6,5.6,1.3,8.2,1.8a69.8,69.8,0,0,0,7.4,1.1,35.85,35.85,0,0,0,7.3-.2,77.44,77.44,0,0,0,8-1.7,14.7,14.7,0,0,1-6.6,6.2,18,18,0,0,1-9.2,1.7,20.16,20.16,0,0,1-8.7-2.7A18.06,18.06,0,0,1,109.5,205.6Z" transform="translate(-109.5 -205.6)"></path>
    </g>
  </g>

  <g id="e1224f22-2a87-4542-82a1-2ff9d9002cfa" data-name="HAIR" style="transform: translate(43.825px, 1px);">
    <g id="feeee559-75c9-4205-9c3c-fc538f079cbc" data-name="Calque 1">
      <g style="transform: translate(0, 102px);">
        <g>
          <path d="M15.72,15.41A65.43,65.43,0,0,1,17.28,1.25,11.9,11.9,0,0,0,12,0,12,12,0,0,0,0,12V39.57a12,12,0,0,0,12,12,11.74,11.74,0,0,0,3.72-.6Z" class="first-color" style="fill: #77581a"></path>
          <path d="M15.72,42.53a11.74,11.74,0,0,1-3.72.61,12,12,0,0,1-12-12v8.43a12,12,0,0,0,12,12,11.74,11.74,0,0,0,3.72-.6Z" style="fill: rgba(0,0,0,0.11)"></path>
        </g>
        <g>
          <path d="M150.35,0h0a11.9,11.9,0,0,0-5.28,1.25,65.43,65.43,0,0,1,1.56,14.16V51a11.74,11.74,0,0,0,3.72.6h0a12,12,0,0,0,12-12V12A12,12,0,0,0,150.35,0Z" class="first-color" style="fill: #77581a"></path>
          <path d="M150.35,43.14a11.74,11.74,0,0,1-3.72-.61V51a11.74,11.74,0,0,0,3.72.6,12,12,0,0,0,12-12V31.14A12,12,0,0,1,150.35,43.14Z" style="fill: rgba(0,0,0,0.11)"></path>
        </g>
      </g>
    </g>
  </g>

  <g id="a0deadc3-9ec0-449d-b3f4-8ccec28d34d1" data-name="Calque 2" style="transform: translate(85.285px, 179.174px);">
    <g id="ac33bc71-d016-4b81-b283-88de41e62a8c" data-name="Calque 1">
      <g>
        <rect x="-0.42" y="3.38" width="43.84" height="16.38" rx="8.19" transform="matrix(0.97, -0.25, 0.25, 0.97, -2.18, 5.64)" class="first-color" style="fill: #77581a"></rect>
        <rect x="36.01" y="3.38" width="43.84" height="16.38" rx="8.19" transform="translate(111.23 37.02) rotate(-165.77)" class="first-color" style="fill: #77581a"></rect>
      </g>
    </g>
  </g>

  <g id="bead2fcf-5299-48b5-ac4d-a921968d650f" data-name="Calque 2" style="transform: translate(59.55px, 133.637px);">
    <g id="f1d6f900-ef5e-4525-8b38-e139482f7a18" data-name="Calque 1">
      <g>
        <path d="M55.91,23.45s3-2.57,9.54-2.57S75,23.45,75,23.45" class="first-color-stroke" style="fill: none;stroke: #1d1d1b;stroke-miterlimit: 10;stroke-width: 3px"></path>
        <line x1="12" y1="20.37" y2="20.37" class="first-color-stroke" style="fill: none;stroke: #1d1d1b;stroke-miterlimit: 10;stroke-width: 3px"></line>
        <line x1="130.9" y1="20.37" x2="118.39" y2="20.37" class="first-color-stroke" style="fill: none;stroke: #1d1d1b;stroke-miterlimit: 10;stroke-width: 3px"></line>
        <rect x="75" y="1.5" width="43.39" height="43.91" rx="12" class="first-color-stroke" style="fill: none;stroke: #1d1d1b;stroke-miterlimit: 10;stroke-width: 3px"></rect>
        <rect x="12.52" y="1.5" width="43.39" height="43.91" rx="12" class="first-color-stroke" style="fill: none;stroke: #1d1d1b;stroke-miterlimit: 10;stroke-width: 3px"></rect>
      </g>
    </g>
  </g>
</svg>