<svg id="svgBuilder" class="avatar-frame p-2 p-md-5 bg-white " xmlns="http://www.w3.org/2000/svg" viewBox="0 0 250 280" style="opacity: 1;">
  <defs>
    <clipPath id="b9b980b5-38c2-4c2c-b5a3-0250ab56908c" transform="translate(-59.5 -53.5)">
      <rect width="250" height="250" style="fill: none"></rect>
    </clipPath>
  </defs>
  <g id="ae1cd98a-2feb-47b9-a86d-6e1f11f5716f" data-name="SKIN" style="transform: translate(59.7px, 54px);">
    <g style="clip-path: url(#b9b980b5-38c2-4c2c-b5a3-0250ab56908c)">
      <g>
        <path class="first-color" d="M124.8,53.5a65.32,65.32,0,0,0-65.3,65.3v65.3a65.3,65.3,0,1,0,130.6,0V118.8A65.32,65.32,0,0,0,124.8,53.5Z" transform="translate(-59.5 -53.5)" style="fill: rgb(240, 200, 127);"></path>
        <path d="M124.8,53.5v196a65.32,65.32,0,0,0,65.3-65.3V118.9A65.34,65.34,0,0,0,124.8,53.5Z" transform="translate(-59.5 -53.5)" style="fill: #010202;opacity: 0.03;isolation: isolate"></path>
      </g>
    </g>
  </g>

  <defs>
    <clipPath id="afd17ad0-2703-488f-b090-8fea6d4763e7" transform="translate(-61.7 -125)">
      <rect width="250" height="250" style="fill: none"></rect>
    </clipPath>
  </defs>
  <g id="ad13c3f2-944b-4717-8d3d-32f2a8763496" data-name="EYES" style="transform: translate(63.15px, 123.5px);">
    <g style="clip-path: url(#afd17ad0-2703-488f-b090-8fea6d4763e7)">
      <g>
        <circle cx="28.4" cy="35" r="16.5" style="fill: #f6f6f6"></circle>
        <circle class="first-color" cx="28.4" cy="35" r="11.4" style="fill: rgb(66, 103, 41);"></circle>
        <circle cx="28.4" cy="35" r="7"></circle>
        <ellipse cx="83.08" cy="164.42" rx="4.4" ry="3.1" transform="translate(-132.78 -61.43) rotate(-30)" style="fill: #fff"></ellipse>
        <circle cx="23.5" cy="31.1" r="2.6" style="fill: #fff"></circle>
        <path class="color-eyebrows" d="M110.4,141.4H69.9a8.24,8.24,0,0,1-8.2-8.2h0a8.24,8.24,0,0,1,8.2-8.2h40.5a8.24,8.24,0,0,1,8.2,8.2h0A8.3,8.3,0,0,1,110.4,141.4Z" transform="translate(-61.7 -125)" style="fill: rgb(234, 30, 43);"></path>
        <circle cx="95.2" cy="35" r="16.5" style="fill: #f6f6f6"></circle>
        <circle class="first-color" cx="95.2" cy="35" r="11.4" style="fill: rgb(66, 103, 41);"></circle>
        <circle cx="95.2" cy="35" r="7"></circle>
        <ellipse cx="149.88" cy="164.42" rx="4.4" ry="3.1" transform="translate(-123.83 -28.03) rotate(-30)" style="fill: #fff"></ellipse>
        <circle cx="90.3" cy="31.1" r="2.6" style="fill: #fff"></circle>
        <path class="color-eyebrows" d="M177.2,141.4H136.7a8.24,8.24,0,0,1-8.2-8.2h0a8.24,8.24,0,0,1,8.2-8.2h40.5a8.24,8.24,0,0,1,8.2,8.2h0A8.3,8.3,0,0,1,177.2,141.4Z" transform="translate(-61.7 -125)" style="fill: rgb(234, 30, 43);"></path>
      </g>
    </g>
  </g>

  <defs>
    <clipPath id="b6c7f4ae-7079-45b2-a65f-b60977edb4bd" transform="translate(-85.8 -192)">
      <rect width="250" height="250" style="fill: none"></rect>
    </clipPath>
    <clipPath id="b4fe7cf3-dfca-4ce1-8989-f006a14e6e51" transform="translate(-85.8 -192)">
      <path d="M131.7,217.3H118.4a8.71,8.71,0,0,1-8.7-8.7h0a8.71,8.71,0,0,1,8.7-8.7h13.3a8.71,8.71,0,0,1,8.7,8.7h0A8.71,8.71,0,0,1,131.7,217.3Z" style="fill: none"></path>
    </clipPath>
  </defs>
  <g id="ee7934b0-adc2-4430-832f-eb28cac62771" data-name="MOUTH" style="transform: translate(85.8px, 200px);">
    <g style="clip-path: url(#b6c7f4ae-7079-45b2-a65f-b60977edb4bd)">
      <g>
        <g style="clip-path: url(#b4fe7cf3-dfca-4ce1-8989-f006a14e6e51)">
          <path d="M131.7,217.3H118.4a8.71,8.71,0,0,1-8.7-8.7h0a8.71,8.71,0,0,1,8.7-8.7h13.3a8.71,8.71,0,0,1,8.7,8.7h0A8.71,8.71,0,0,1,131.7,217.3Z" transform="translate(-85.8 -192)"></path>
        </g>
        <g style="clip-path: url(#b4fe7cf3-dfca-4ce1-8989-f006a14e6e51)">
          <path d="M90.7,193.6a4.91,4.91,0,0,0-4.9,4.9v4.9a4.9,4.9,0,1,0,9.8,0v-4.9A4.91,4.91,0,0,0,90.7,193.6Z" transform="translate(-85.8 -192)" style="fill: #fff"></path>
        </g>
        <g style="clip-path: url(#b4fe7cf3-dfca-4ce1-8989-f006a14e6e51)">
          <path d="M159.3,193.6a4.91,4.91,0,0,0-4.9,4.9v4.9a4.9,4.9,0,0,0,9.8,0v-4.9A4.91,4.91,0,0,0,159.3,193.6Z" transform="translate(-85.8 -192)" style="fill: #fff"></path>
        </g>
        <g style="clip-path: url(#b4fe7cf3-dfca-4ce1-8989-f006a14e6e51)">
          <path d="M100.5,193.6a4.91,4.91,0,0,0-4.9,4.9v4.9a4.9,4.9,0,1,0,9.8,0v-4.9A4.91,4.91,0,0,0,100.5,193.6Z" transform="translate(-85.8 -192)" style="fill: #fff"></path>
        </g>
        <g style="clip-path: url(#b4fe7cf3-dfca-4ce1-8989-f006a14e6e51)">
          <path d="M110.3,193.6a4.91,4.91,0,0,0-4.9,4.9v4.9a4.9,4.9,0,0,0,9.8,0v-4.9A4.91,4.91,0,0,0,110.3,193.6Z" transform="translate(-85.8 -192)" style="fill: #fff"></path>
        </g>
        <g style="clip-path: url(#b4fe7cf3-dfca-4ce1-8989-f006a14e6e51)">
          <path d="M120.1,193.6a4.91,4.91,0,0,0-4.9,4.9v4.9a4.9,4.9,0,0,0,9.8,0v-4.9A4.91,4.91,0,0,0,120.1,193.6Z" transform="translate(-85.8 -192)" style="fill: #fff"></path>
        </g>
        <g style="clip-path: url(#b4fe7cf3-dfca-4ce1-8989-f006a14e6e51)">
          <path d="M129.9,193.6a4.91,4.91,0,0,0-4.9,4.9v4.9a4.9,4.9,0,0,0,9.8,0v-4.9A4.91,4.91,0,0,0,129.9,193.6Z" transform="translate(-85.8 -192)" style="fill: #fff"></path>
        </g>
        <g style="clip-path: url(#b4fe7cf3-dfca-4ce1-8989-f006a14e6e51)">
          <path d="M139.7,193.6a4.91,4.91,0,0,0-4.9,4.9v4.9a4.9,4.9,0,0,0,9.8,0v-4.9A4.91,4.91,0,0,0,139.7,193.6Z" transform="translate(-85.8 -192)" style="fill: #fff"></path>
        </g>
        <g style="clip-path: url(#b4fe7cf3-dfca-4ce1-8989-f006a14e6e51)">
          <path d="M149.5,193.6a4.91,4.91,0,0,0-4.9,4.9v4.9a4.9,4.9,0,1,0,9.8,0v-4.9A4.91,4.91,0,0,0,149.5,193.6Z" transform="translate(-85.8 -192)" style="fill: #fff"></path>
        </g>
        <g style="clip-path: url(#b4fe7cf3-dfca-4ce1-8989-f006a14e6e51)">
          <rect x="9.8" width="58.7" height="9" style="fill: #fff"></rect>
        </g>
        <g style="clip-path: url(#b4fe7cf3-dfca-4ce1-8989-f006a14e6e51)">
          <ellipse cx="39.2" cy="31.3" rx="18.3" ry="12.8" style="fill: #991914"></ellipse>
        </g>
      </g>
    </g>
  </g>

  <defs>
    <clipPath id="b5ac7c05-6f46-4a32-992d-240fdb0c0953" transform="translate(-112.4 -1)">
      <rect width="250" height="250" style="fill: none"></rect>
    </clipPath>
  </defs>
  <g id="e77d77d3-3d71-4a67-bf1a-dd1ab01c1ee4" data-name="HAIR" style="transform: translate(112.5px, 1px);">
    <g>
      <g style="clip-path: url(#b5ac7c05-6f46-4a32-992d-240fdb0c0953)">
        <path class="first-color" d="M125.6,82.1h-1.3a11.93,11.93,0,0,1-11.9-11.9l1-37.4c0-6.5,3.9-31.8,11.5-31.8s11.5,25.3,11.5,31.8l1,37.4A11.78,11.78,0,0,1,125.6,82.1Z" transform="translate(-112.4 -1)" style="fill: rgb(234, 30, 43);"></path>
      </g>
      <g style="clip-path: url(#b5ac7c05-6f46-4a32-992d-240fdb0c0953)">
        <path d="M131.4,80.1a11.93,11.93,0,0,1-11.9-11.9l1-37.4c0-5.1,2.4-21.8,7.1-28.8A4.45,4.45,0,0,0,125,1c-7.6,0-11.5,25.3-11.5,31.8l-1,37.4a11.93,11.93,0,0,0,11.9,11.9h1.3a11.67,11.67,0,0,0,6.6-2Z" transform="translate(-112.4 -1)" style="fill: rgba(0,0,0,0.11)"></path>
      </g>
    </g>
  </g>

  <g id="b26ea726-11a9-4bf3-a29c-ea7403cfe113" data-name="Calque 2" style="transform: translate(104.15px, 191.558px);">
    <g id="a8641ed9-079d-4d82-9321-b26e410d2bf2" data-name="Calque 1">
      <g>
        <rect x="-0.17" y="1.37" width="17.78" height="6.64" rx="3.32" transform="translate(-0.89 2.29) rotate(-14.23)" class="first-color" style="fill: rgb(234, 30, 43);"></rect>
        <rect x="24.09" y="1.37" width="17.78" height="6.64" rx="3.32" transform="translate(63.79 17.35) rotate(-165.77)" class="first-color" style="fill: rgb(234, 30, 43);"></rect>
      </g>
    </g>
  </g>

  <g id="b8fb0b44-ffa0-4773-b20b-26a2ade0610b" data-name="Calque 2" style="transform: translate(59.55px, 133.637px);">
    <g id="be9e3fef-dad1-4b40-851e-7643ac638c4d" data-name="Calque 1">
      <g>
        <circle cx="33.95" cy="23.45" r="21.95" class="first-color-stroke" style="fill: none; stroke: rgb(205, 22, 217); stroke-miterlimit: 10; stroke-width: 3px;"></circle>
        <circle cx="96.95" cy="23.45" r="21.95" class="first-color-stroke" style="fill: none; stroke: rgb(205, 22, 217); stroke-miterlimit: 10; stroke-width: 3px;"></circle>
        <path d="M55.91,23.45s3-2.57,9.54-2.57S75,23.45,75,23.45" class="first-color-stroke" style="fill: none; stroke: rgb(205, 22, 217); stroke-miterlimit: 10; stroke-width: 3px;"></path>
        <line x1="12" y1="20.37" y2="20.37" class="first-color-stroke" style="fill: none; stroke: rgb(205, 22, 217); stroke-miterlimit: 10; stroke-width: 3px;"></line>
        <line x1="130.9" y1="20.37" x2="118.39" y2="20.37" class="first-color-stroke" style="fill: none; stroke: rgb(205, 22, 217); stroke-miterlimit: 10; stroke-width: 3px;"></line>
      </g>
    </g>
  </g>
</svg>