<svg id="svgBuilder" class="avatar-frame p-2 p-md-5 bg-white " xmlns="http://www.w3.org/2000/svg" viewBox="0 0 250 280" style="opacity: 1;">
  <defs>
    <clipPath id="b9b980b5-38c2-4c2c-b5a3-0250ab56908c" transform="translate(-59.5 -53.5)">
      <rect width="250" height="250" style="fill: none"></rect>
    </clipPath>
  </defs>
  <g id="ae1cd98a-2feb-47b9-a86d-6e1f11f5716f" data-name="SKIN" style="transform: translate(59.7px, 54px);">
    <g style="clip-path: url(#b9b980b5-38c2-4c2c-b5a3-0250ab56908c)">
      <g>
        <path class="first-color" d="M124.8,53.5a65.32,65.32,0,0,0-65.3,65.3v65.3a65.3,65.3,0,1,0,130.6,0V118.8A65.32,65.32,0,0,0,124.8,53.5Z" transform="translate(-59.5 -53.5)" style="fill: rgb(158, 109, 40);"></path>
        <path d="M124.8,53.5v196a65.32,65.32,0,0,0,65.3-65.3V118.9A65.34,65.34,0,0,0,124.8,53.5Z" transform="translate(-59.5 -53.5)" style="fill: #010202;opacity: 0.03;isolation: isolate"></path>
      </g>
    </g>
  </g>

  <defs>
    <clipPath id="beda9165-2264-4a53-a072-0a095227532f" transform="translate(-62.2 -124.9)">
      <rect width="250" height="250" style="fill: none"></rect>
    </clipPath>
  </defs>
  <g id="b470c38d-1d72-4985-984b-abe0a058d5dc" data-name="EYES" style="transform: translate(63.4px, 123.9px);">
    <g style="clip-path: url(#beda9165-2264-4a53-a072-0a095227532f)">
      <g>
        <circle cx="27.9" cy="34.6" r="16.5" style="fill: #f6f6f6"></circle>
        <circle class="first-color" cx="27.9" cy="34.6" r="11.4" style="fill: #1f5da1"></circle>
        <circle cx="27.9" cy="34.6" r="7"></circle>
        <ellipse cx="83.09" cy="163.92" rx="4.4" ry="3.1" transform="translate(-133.02 -61.39) rotate(-30)" style="fill: #fff"></ellipse>
        <circle cx="23" cy="30.7" r="2.6" style="fill: #fff"></circle>
        <path class="color-eyebrows" d="M111.7,141.1l-39.5,9a8.22,8.22,0,0,1-9.8-6.2h0a8.22,8.22,0,0,1,6.2-9.8l39.5-9a8.22,8.22,0,0,1,9.8,6.2h0A8.3,8.3,0,0,1,111.7,141.1Z" transform="translate(-62.2 -124.9)" style="fill: rgb(54, 35, 2);"></path>
        <circle cx="94.7" cy="34.6" r="16.5" style="fill: #f6f6f6"></circle>
        <circle class="first-color" cx="94.7" cy="34.6" r="11.4" style="fill: #1f5da1"></circle>
        <circle cx="94.7" cy="34.6" r="7"></circle>
        <ellipse cx="149.89" cy="163.91" rx="4.4" ry="3.1" transform="translate(-124.07 -27.99) rotate(-30)" style="fill: #fff"></ellipse>
        <circle cx="89.8" cy="30.7" r="2.6" style="fill: #fff"></circle>
        <path class="color-eyebrows" d="M177.2,145.8H136.7a8.24,8.24,0,0,1-8.2-8.2h0a8.24,8.24,0,0,1,8.2-8.2h40.5a8.24,8.24,0,0,1,8.2,8.2h0A8.24,8.24,0,0,1,177.2,145.8Z" transform="translate(-62.2 -124.9)" style="fill: rgb(54, 35, 2);"></path>
      </g>
    </g>
  </g>

  <defs>
    <clipPath id="efb50588-46f8-450f-9eb6-9b79a95f01cc" transform="translate(-109.5 -205.6)">
      <rect width="250" height="250" style="fill: none"></rect>
    </clipPath>
  </defs>
  <g id="a483ccee-3e19-4ccf-91f0-27460b648a73" data-name="MOUTH" style="transform: translate(109.55px, 200px);">
    <g style="clip-path: url(#efb50588-46f8-450f-9eb6-9b79a95f01cc)">
      <path d="M109.5,205.6c3,.6,5.6,1.3,8.2,1.8a69.8,69.8,0,0,0,7.4,1.1,35.85,35.85,0,0,0,7.3-.2,77.44,77.44,0,0,0,8-1.7,14.7,14.7,0,0,1-6.6,6.2,18,18,0,0,1-9.2,1.7,20.16,20.16,0,0,1-8.7-2.7A18.06,18.06,0,0,1,109.5,205.6Z" transform="translate(-109.5 -205.6)"></path>
    </g>
  </g>





  <g id="bafb42aa-f892-4118-9e67-e666176e7147" data-name="Calque 2" style="transform: translate(36.44px, 1px);">
    <g id="a2c5b6d1-fa78-4e6b-811d-13d195c67490" data-name="Calque 1" style="transform: translateY(16px);">
      <path d="M177.12,34A33.95,33.95,0,0,0,119.3,9.81a82.87,82.87,0,0,0-61.47,0A34,34,0,1,0,10.58,58.57a83,83,0,0,0,12.53,79.15V107.14a65.79,65.79,0,0,1,1-11.12,48.67,48.67,0,0,0,77.63,2.46,33.94,33.94,0,0,0,49.83-9.17A65.18,65.18,0,0,1,154,107.14v30.58a82.93,82.93,0,0,0,12.53-79.15A33.8,33.8,0,0,0,177.12,34Z" class="first-color" style="fill: rgb(54, 35, 2);"></path>
      <g>
        <path d="M154,92.29a65.26,65.26,0,0,0-2.48-17.84,33.94,33.94,0,0,1-49.83,9.17,48.67,48.67,0,0,1-77.63-2.45,65.79,65.79,0,0,0-1,11.12v14.85a65.79,65.79,0,0,1,1-11.12,48.67,48.67,0,0,0,77.63,2.46,33.94,33.94,0,0,0,49.83-9.17A65.18,65.18,0,0,1,154,107.14Z" style="fill: rgba(0,0,0,0.11)"></path>
        <path d="M10.58,43.72A34,34,0,0,1,.82,26.53,34.25,34.25,0,0,0,0,34c0,8,3.63,19,10.58,24.61C11.39,54.68,9.25,47.39,10.58,43.72Z" style="fill: rgba(0,0,0,0.11)"></path>
        <path d="M5.64,86.83a82.54,82.54,0,0,0,17.47,50.89V122.86A82.51,82.51,0,0,1,6,79.38C5.75,81.83,5.64,84.32,5.64,86.83Z" style="fill: rgba(0,0,0,0.11)"></path>
        <path d="M154,122.86v14.86a82.54,82.54,0,0,0,17.48-50.89c0-2.51-.12-5-.34-7.45A82.42,82.42,0,0,1,154,122.86Z" style="fill: rgba(0,0,0,0.11)"></path>
        <path d="M166.54,43.72c1.33,3.67-.81,11,0,14.85,6.62-5.13,10.58-16.63,10.58-24.61a34.25,34.25,0,0,0-.82-7.43A34,34,0,0,1,166.54,43.72Z" style="fill: rgba(0,0,0,0.11)"></path>
      </g>
    </g>
  </g>
</svg>