<svg id="svgBuilder" class="avatar-frame p-2 p-md-5 bg-white " xmlns="http://www.w3.org/2000/svg" viewBox="0 0 250 280" style="opacity: 1;">
  <defs>
    <clipPath id="b9b980b5-38c2-4c2c-b5a3-0250ab56908c" transform="translate(-59.5 -53.5)">
      <rect width="250" height="250" style="fill: none"></rect>
    </clipPath>
  </defs>
  <g id="ae1cd98a-2feb-47b9-a86d-6e1f11f5716f" data-name="SKIN" style="transform: translate(59.7px, 54px);">
    <g style="clip-path: url(#b9b980b5-38c2-4c2c-b5a3-0250ab56908c)">
      <g>
        <path class="first-color" d="M124.8,53.5a65.32,65.32,0,0,0-65.3,65.3v65.3a65.3,65.3,0,1,0,130.6,0V118.8A65.32,65.32,0,0,0,124.8,53.5Z" transform="translate(-59.5 -53.5)" style="fill: #f0c87f"></path>
        <path d="M124.8,53.5v196a65.32,65.32,0,0,0,65.3-65.3V118.9A65.34,65.34,0,0,0,124.8,53.5Z" transform="translate(-59.5 -53.5)" style="fill: #010202;opacity: 0.03;isolation: isolate"></path>
      </g>
    </g>
  </g>

  <defs>
    <clipPath id="f17ecd4c-0f42-444c-acaa-c03d7466a8ed" transform="translate(-61.7 -129.4)">
      <rect width="250" height="250" style="fill: none"></rect>
    </clipPath>
  </defs>
  <g id="e3efb90f-a358-4d89-8f7c-a99949cbe6d7" data-name="EYES" style="transform: translate(63.15px, 128.5px);">
    <g style="clip-path: url(#f17ecd4c-0f42-444c-acaa-c03d7466a8ed)">
      <g>
        <circle cx="28.5" cy="30" r="16.5" style="fill: #f6f6f6"></circle>
        <circle class="first-color" cx="28.5" cy="30" r="11.4" style="fill: #1f5da1"></circle>
        <circle cx="28.5" cy="30" r="7"></circle>
        <ellipse cx="83.21" cy="163.87" rx="4.4" ry="3.1" transform="translate(-132.49 -65.84) rotate(-30)" style="fill: #fff"></ellipse>
        <circle cx="23.5" cy="26.2" r="2.6" style="fill: #fff"></circle>
        <path class="color-eyebrows" d="M110.4,145.8H69.9a8.24,8.24,0,0,1-8.2-8.2h0a8.24,8.24,0,0,1,8.2-8.2h40.5a8.24,8.24,0,0,1,8.2,8.2h0A8.24,8.24,0,0,1,110.4,145.8Z" transform="translate(-61.7 -129.4)" style="fill: rgb(255, 230, 121);"></path>
        <circle cx="95.2" cy="30" r="16.5" style="fill: #f6f6f6"></circle>
        <circle class="first-color" cx="95.2" cy="30" r="11.4" style="fill: #1f5da1"></circle>
        <circle cx="95.2" cy="30" r="7"></circle>
        <ellipse cx="150.01" cy="163.87" rx="4.4" ry="3.1" transform="translate(-123.54 -32.44) rotate(-30)" style="fill: #fff"></ellipse>
        <circle cx="90.3" cy="26.2" r="2.6" style="fill: #fff"></circle>
        <path class="color-eyebrows" d="M177.2,145.8H136.7a8.24,8.24,0,0,1-8.2-8.2h0a8.24,8.24,0,0,1,8.2-8.2h40.5a8.24,8.24,0,0,1,8.2,8.2h0A8.24,8.24,0,0,1,177.2,145.8Z" transform="translate(-61.7 -129.4)" style="fill: rgb(255, 230, 121);"></path>
      </g>
    </g>
  </g>

  <defs>
    <clipPath id="efb50588-46f8-450f-9eb6-9b79a95f01cc" transform="translate(-109.5 -205.6)">
      <rect width="250" height="250" style="fill: none"></rect>
    </clipPath>
  </defs>
  <g id="a483ccee-3e19-4ccf-91f0-27460b648a73" data-name="MOUTH" style="transform: translate(109.55px, 200px);">
    <g style="clip-path: url(#efb50588-46f8-450f-9eb6-9b79a95f01cc)">
      <path d="M109.5,205.6c3,.6,5.6,1.3,8.2,1.8a69.8,69.8,0,0,0,7.4,1.1,35.85,35.85,0,0,0,7.3-.2,77.44,77.44,0,0,0,8-1.7,14.7,14.7,0,0,1-6.6,6.2,18,18,0,0,1-9.2,1.7,20.16,20.16,0,0,1-8.7-2.7A18.06,18.06,0,0,1,109.5,205.6Z" transform="translate(-109.5 -205.6)"></path>
    </g>
  </g>

  <g id="b7695971-4255-4703-9f32-6711e3731ccf" data-name="Calque 2" style="transform: translate(39.205px, 1px);">
    <g id="e74d2ffe-b1f1-43d4-9407-2bb7a16526db" data-name="Calque 1" style="transform:translate(3.6px,34px)">
      <path d="M148.88,36.07A68.92,68.92,0,0,0,96.12,1.5a65.06,65.06,0,0,0-27.78,0A68.85,68.85,0,0,0,6.65,69.76v47.06c0,.59,0,1.18,0,1.77-.47.75-.91,1.53-1.34,2.34-11.47,21.88-1.1,54.41.07,55,.66.36,7.46-.66,15.38-5.79a65.32,65.32,0,0,1-4-20.19h0c0-.82-.06-1.64-.06-2.47V82.09a65.93,65.93,0,0,1,1-11.14C23,89.25,39.9,98.55,42,98.34c1.7-.17,9.7-11.09,14.06-26.74l.21.47c10.6,22.31,36.24,25,38.35,23.8,1-.58,2.83-7.22,3.06-16.68,13.44,9.15,29.21,8.22,30.69,7.08.78-.6,1.45-5.36,1-12.27a40.68,40.68,0,0,0,18.27,5.24c0,1,.07,1.9.07,2.85v65.45c0,.83,0,1.65-.06,2.47h0a65.35,65.35,0,0,1-4.28,21c6.76,4.43,12.42,5.58,13,5.29,1.2-.57,13.42-32.45,3.23-54.95a38.63,38.63,0,0,0-1.83-3.51c0-.34,0-.68,0-1V78.62c7.68-1.29,13.1-4.09,13.67-5.05C172.58,71.7,165.82,51.24,148.88,36.07Z" class="first-color" style="fill: #ffe679"></path>
      <g>
        <path d="M6.69,110.31c0-.59,0-1.18,0-1.77v1.83Z" style="fill: rgba(0,0,0,0.11)"></path>
        <path d="M5.42,167.71C4.72,167.33.82,155.82.11,142c-.91,17.26,4.48,33.58,5.31,34,.66.36,7.46-.66,15.38-5.79a67.33,67.33,0,0,1-2.13-7C11.69,167.21,6,168,5.42,167.71Z" style="fill: rgba(0,0,0,0.11)"></path>
        <path d="M157.8,109.59v-1c0,.34,0,.67,0,1Z" style="fill: rgba(0,0,0,0.11)"></path>
        <path d="M156.38,168c-.55.26-5.08-.63-10.83-3.94a67.16,67.16,0,0,1-2.21,6.92c6.76,4.43,12.42,5.58,13,5.29.92-.43,8.26-19.15,7.13-38C162.61,154,157.16,167.64,156.38,168Z" style="fill: rgba(0,0,0,0.11)"></path>
        <path d="M169.9,66.46a40.37,40.37,0,0,1-12.1,3.89c-3.34.54-22.32-1.14-28.46-4.63.44,6.91-.23,11.67-1,12.27-1.48,1.14-17.25,2.07-30.69-7.07-.23,9.45-2,16.1-3.06,16.68-2.11,1.17-27.75-1.49-38.35-23.81L56,63.33C51.66,79,43.66,89.89,42,90.06,39.9,90.27,23,81,17.74,62.67a66.14,66.14,0,0,0-1,11.15v8.27a65.93,65.93,0,0,1,1-11.14C23,89.25,39.9,98.55,42,98.34c1.7-.17,9.7-11.09,14.06-26.74l.21.47c10.6,22.31,36.24,25,38.35,23.8,1-.58,2.83-7.22,3.06-16.68,13.44,9.15,29.21,8.22,30.69,7.08.78-.6,1.45-5.36,1-12.27a40.68,40.68,0,0,0,18.27,5.24c7.42.33,10.19-.62,10.19-.62,7.68-1.29,13.1-4.09,13.67-5.05C171.84,73,171.34,70.29,169.9,66.46Z" style="fill: rgba(0,0,0,0.11)"></path>
      </g>
    </g>
  </g>

  <g id="f4a7fb9c-9a87-449c-bf20-953ee838dd75" data-name="Calque 2" style="transform: translate(114.705px, 223.776px);">
    <g id="b57bda94-a7fc-4984-b35b-a9f3a04b9067" data-name="Calque 1" style="transform: translateY(5px);">
      <rect x="0.16" width="20.43" height="32.78" rx="8.75" class="first-color" style="fill: rgb(255, 230, 121);"></rect>
      <path d="M2.55,24V2.59h0A8.76,8.76,0,0,0,0,8.75V24a8.78,8.78,0,0,0,8.75,8.75h2.56A8.78,8.78,0,0,1,2.55,24Z" style="fill: rgba(0,0,0,0.11)"></path>
    </g>
  </g>


</svg>