<svg id="svgBuilder" class="avatar-frame p-2 p-md-5 bg-white " xmlns="http://www.w3.org/2000/svg" viewBox="0 0 250 280" style="opacity: 1;">
  <defs>
    <clipPath id="b9b980b5-38c2-4c2c-b5a3-0250ab56908c" transform="translate(-59.5 -53.5)">
      <rect width="250" height="250" style="fill: none"></rect>
    </clipPath>
  </defs>
  <g id="ae1cd98a-2feb-47b9-a86d-6e1f11f5716f" data-name="SKIN" style="transform: translate(59.7px, 54px);">
    <g style="clip-path: url(#b9b980b5-38c2-4c2c-b5a3-0250ab56908c)">
      <g>
        <path class="first-color" d="M124.8,53.5a65.32,65.32,0,0,0-65.3,65.3v65.3a65.3,65.3,0,1,0,130.6,0V118.8A65.32,65.32,0,0,0,124.8,53.5Z" transform="translate(-59.5 -53.5)" style="fill: rgb(242, 202, 173);"></path>
        <path d="M124.8,53.5v196a65.32,65.32,0,0,0,65.3-65.3V118.9A65.34,65.34,0,0,0,124.8,53.5Z" transform="translate(-59.5 -53.5)" style="fill: #010202;opacity: 0.03;isolation: isolate"></path>
      </g>
    </g>
  </g>

  <g id="a8b3ee12-6681-432d-8071-a5f9b82d9835" data-name="Calque 2" style="transform: translate(61.755px, 137.51px);">
    <g id="b7a62641-d0bd-45ac-8564-1c0dee7b2655" data-name="Calque 1" style="transform:translateY(-8px);">
      <path d="M96.72,35.32a45.37,45.37,0,0,1,14.09,2.17,16.52,16.52,0,1,0-28.19,0A45.39,45.39,0,0,1,96.72,35.32Z" style="fill:#f6f6f6"></path>
      <path d="M96.72,35.32a47.71,47.71,0,0,1,8.79.81,11.39,11.39,0,1,0-17.59,0A47.82,47.82,0,0,1,96.72,35.32Z" class="first-color" style="fill:#245c2f"></path>
      <path d="M94.07,35.4c.87,0,1.75-.08,2.65-.08s1.77,0,2.64.08a7,7,0,1,0-5.29,0Z" style="fill:#1d1d1b"></path>
      <path d="M86.72,36.37A46.9,46.9,0,0,1,92,35.55c1.57-1.26,2.24-3.1,1.48-4.41-.87-1.51-3.28-1.74-5.39-.53S85,34,85.89,35.54A2.36,2.36,0,0,0,86.72,36.37Z" style="fill:#fff"></path>
      <circle cx="91.75" cy="25.02" r="2.64" style="fill:#fff"></circle>
      <rect x="70.01" y="4.2" width="56.91" height="16.38" rx="8.19" transform="translate(4.7 -20.13) rotate(11.95)" class="color-eyebrows" style="fill: rgb(250, 230, 121);"></rect>
      <path d="M29.77,35.32a45.33,45.33,0,0,0-14.09,2.17,16.52,16.52,0,1,1,28.19,0A45.39,45.39,0,0,0,29.77,35.32Z" style="fill:#f6f6f6"></path>
      <path d="M29.77,35.32a47.71,47.71,0,0,0-8.79.81,11.39,11.39,0,1,1,17.59,0A47.82,47.82,0,0,0,29.77,35.32Z" class="first-color" style="fill:#245c2f"></path>
      <path d="M32.42,35.4c-.87,0-1.75-.08-2.65-.08s-1.77,0-2.64.08a7,7,0,1,1,5.29,0Z" style="fill:#1d1d1b"></path>
      <path d="M39.77,36.37a46.73,46.73,0,0,0-5.33-.82c-1.57-1.26-2.23-3.1-1.47-4.41.87-1.51,3.28-1.74,5.39-.53S41.47,34,40.6,35.54A2.36,2.36,0,0,1,39.77,36.37Z" style="fill:#fff"></path>
      <circle cx="34.74" cy="25.02" r="2.64" style="fill:#fff"></circle>
      <rect x="-0.44" y="4.2" width="56.91" height="16.38" rx="8.19" transform="translate(58 18.71) rotate(168.05)" class="color-eyebrows" style="fill: rgb(250, 230, 121);"></rect>
    </g>
  </g>

  <defs>
    <clipPath id="b9f993e5-5ba5-4341-bd5c-5bdb4c4c5ed5" transform="translate(-105.69 -217.02)">
      <rect id="e2b9041f-157e-4fdb-8943-5f2550ad176a" data-name="SVGID" width="250" height="250" style="fill:none"></rect>
    </clipPath>
  </defs>
  <g style="clip-path: url(&quot;#b9f993e5-5ba5-4341-bd5c-5bdb4c4c5ed5&quot;); transform: translate(105.69px, 200px);" data-name="MOUTH">
    <g style="transform: translateY(4px);">
      <path d="M125.07,229c-10.39,0-18.27-7.39-18.6-7.71a2.5,2.5,0,1,1,3.44-3.62c.08.08,6.81,6.33,15.16,6.33s14.93-6.25,15-6.31a2.5,2.5,0,0,1,3.48,3.59C143.22,221.63,135.48,229,125.07,229Z" transform="translate(-105.69 -217.02)" style="fill:#1d1d1b;"></path>
    </g>
  </g>

  <g id="b067a4b7-cb22-4038-8ae1-c3b1417db695" data-name="Calque 2" style="transform: translate(53.43px, 1px);">
    <g id="ea0b9685-a72f-4b04-b2c5-4820e2e3836d" data-name="Calque 1" style="transform: translateY(16px);">
      <path d="M96.26,28.35C94.25,12.26,84,0,71.57,0S48.89,12.26,46.87,28.35C19.52,36.23,0,56.81,0,81v65.49c0,6.09,2.74,11,6.12,11V119.22A65.34,65.34,0,0,1,33.7,65.85c4.77,7.22,19.91,12.5,37.87,12.5s33.1-5.28,37.87-12.5A65.37,65.37,0,0,1,137,119.22v38.26c3.38,0,6.12-4.93,6.12-11V81C143.14,56.81,123.62,36.23,96.26,28.35Z" style="fill: rgb(250, 230, 121);" class="first-color"></path>
      <g style="opacity:0.1">
        <path d="M137,112.07A65.36,65.36,0,0,0,109.44,58.7c-4.77,7.22-19.92,12.5-37.87,12.5S38.47,65.92,33.7,58.7A65.36,65.36,0,0,0,6.12,112.07v7.15A65.34,65.34,0,0,1,33.7,65.85c4.77,7.22,19.91,12.5,37.87,12.5s33.1-5.28,37.87-12.5A65.34,65.34,0,0,1,137,119.22Z" style="fill:#070707"></path>
      </g>
      <path d="M71.57,0C59.18,0,48.89,12.26,46.87,28.35h0s6.58-2.53,24.7-2.53,24.69,2.53,24.69,2.53h0C94.25,12.26,84,0,71.57,0Z" style="fill:#070707;opacity:0.1"></path>
    </g>
  </g>



  <g id="b588daed-6466-46d3-99eb-f6d3721dce63" data-name="Calque 2" style="transform: translate(59.91px, 143.3375px);">
    <g id="e158bb0b-b774-4b78-be9b-323aef9712b8" data-name="Calque 2" style="transform: translateY(-12px);">
      <path d="M127.9,12.86c0-.41,0-.82,0-1.22V11.4l-.1-.21a2.71,2.71,0,0,0-.33-.52,1.8,1.8,0,0,0-.34-.36l-.63-.59-.77-.66c-.52-.44-1-.85-1.59-1.25a33.31,33.31,0,0,0-3.33-2.23,40.21,40.21,0,0,0-7.26-3.39,37.91,37.91,0,0,0-15.91-2,42,42,0,0,0-15.3,4.42,57.38,57.38,0,0,0-11.29,7.49h-12A57.26,57.26,0,0,0,47.83,4.57,42.11,42.11,0,0,0,32.52.15a37.85,37.85,0,0,0-15.9,2A39.58,39.58,0,0,0,9.36,5.58,31.2,31.2,0,0,0,6,7.81c-.54.4-1.07.81-1.58,1.24l-.79.68L3,10.3a2,2,0,0,0-.33.35,2.47,2.47,0,0,0-.34.54l-.11.21v.24c0,.4,0,.81,0,1.22H0v4.78H2.47L2.6,19c0,.39.08.77.11,1.16.07.73.14,1.48.25,2.22l.49,3.36A57.94,57.94,0,0,0,7.13,39C9.36,44,12,47.74,15.28,50.32a21.11,21.11,0,0,0,12.77,4.35h.63a26.36,26.36,0,0,0,13.37-4,37,37,0,0,0,10.13-9.46,45.37,45.37,0,0,0,6.39-12.23,54.45,54.45,0,0,0,2.62-10.84c.93-2.3,3.72-2.18,3.83-2.17h.13c.12,0,2.9-.13,3.84,2.17a54,54,0,0,0,2.62,10.83A45.24,45.24,0,0,0,78,41.17a36.86,36.86,0,0,0,10.11,9.45,26.41,26.41,0,0,0,13.36,4,21,21,0,0,0,13.42-4.35c3.25-2.57,5.92-6.28,8.15-11.36a57.6,57.6,0,0,0,3.68-13.23l.48-3.33c.12-.75.19-1.5.25-2.23,0-.39.07-.77.12-1.17l.12-1.35h2.48V12.86Zm-4.58,4.21-.06,1.63c0,.39,0,.79-.05,1.18,0,.71,0,1.38-.11,2.06l-.28,3.23a53.33,53.33,0,0,1-3,12.47,24.27,24.27,0,0,1-7,10.14,17.67,17.67,0,0,1-11.34,3.8,23.29,23.29,0,0,1-11.72-3.71,31.19,31.19,0,0,1-9-8.74A41,41,0,0,1,75.37,27.7a48.28,48.28,0,0,1-1.89-11.35A58,58,0,0,1,84.64,9.27,38.22,38.22,0,0,1,98.11,5.54a32.4,32.4,0,0,1,6.93.18,35.75,35.75,0,0,1,6.78,1.55,39.46,39.46,0,0,1,6.45,2.81c.93.5,1.89,1.08,3,1.82.49.32,1,.65,1.43,1l.62.47c0,.75,0,1.49,0,2.24ZM17.3,47.79a24.18,24.18,0,0,1-7-10.16,53.13,53.13,0,0,1-3-12.42l-.29-3.28C7,21.26,7,20.59,7,19.88c0-.4,0-.79,0-1.17l-.06-1.6V15.62c0-.75,0-1.5,0-2.25.2-.16.4-.32.62-.47.46-.35.94-.68,1.43-1,1.13-.74,2.09-1.32,3-1.83a39.7,39.7,0,0,1,6.43-2.8,35.85,35.85,0,0,1,6.79-1.55,32.48,32.48,0,0,1,6.94-.18A38.28,38.28,0,0,1,45.54,9.27a57.58,57.58,0,0,1,11.15,7.08A48.35,48.35,0,0,1,54.81,27.7a41.24,41.24,0,0,1-5.46,11.44,31.32,31.32,0,0,1-9,8.73,23.25,23.25,0,0,1-11.71,3.71A17.71,17.71,0,0,1,17.3,47.79Z" class="first-color" style="fill:#e30613"></path>
    </g>
  </g>
</svg>